<svg width="169" height="35" viewBox="0 0 169 35" fill="none" xmlns="http://www.w3.org/2000/svg">
<g clip-path="url(#clip0_2003_101)">
<mask id="mask0_2003_101" style="mask-type:luminance" maskUnits="userSpaceOnUse" x="0" y="0" width="169" height="35">
<path d="M169 0H0V35H169V0Z" fill="white"/>
</mask>
<g mask="url(#mask0_2003_101)">
<path d="M159 0H10C4.47715 0 0 4.47715 0 10V25C0 30.5228 4.47715 35 10 35H159C164.523 35 169 30.5228 169 25V10C169 4.47715 164.523 0 159 0Z" fill="url(#paint0_linear_2003_101)"/>
<mask id="mask1_2003_101" style="mask-type:alpha" maskUnits="userSpaceOnUse" x="0" y="0" width="169" height="35">
<path d="M159 0H10C4.47715 0 0 4.47715 0 10V25C0 30.5228 4.47715 35 10 35H159C164.523 35 169 30.5228 169 25V10C169 4.47715 164.523 0 159 0Z" fill="#2A2A2A"/>
</mask>
<g mask="url(#mask1_2003_101)">
<path d="M-23.4211 -77.6775C80.4929 -158.518 99.8185 -279.576 96.4919 -330C48.4798 -180.255 -86.9996 -103.77 -148.738 -84.2459C49.692 106.215 255.27 -10.7057 333.256 -92.9738C227.758 -104.311 143.954 -243.042 115.239 -310.991C121.754 -195.636 45.6125 -111.052 6.72752 -83.1796C74.3656 -92.7148 119.672 -141.149 133.87 -164.175C170.789 -111.737 221.531 -79.1352 242.286 -69.3891C130.82 -8.47409 18.7037 -49.5335 -23.4211 -77.6775Z" fill="url(#paint1_linear_2003_101)" fill-opacity="0.3" style="mix-blend-mode:overlay"/>
</g>
<mask id="mask2_2003_101" style="mask-type:luminance" maskUnits="userSpaceOnUse" x="32" y="12" width="12" height="12">
<path d="M44 12H32V24H44V12Z" fill="white"/>
</mask>
<g mask="url(#mask2_2003_101)">
<path d="M41.2905 13.07L38.158 12.0255C38.0554 11.9913 37.9446 11.9913 37.842 12.0255L34.7095 13.07C34.2115 13.2354 33.7782 13.5536 33.4713 13.9794C33.1644 14.4051 32.9995 14.9167 33 15.4415V18C33 21.7815 37.6 23.87 37.797 23.957C37.8609 23.9854 37.9301 24.0001 38 24.0001C38.0699 24.0001 38.1391 23.9854 38.203 23.957C38.4 23.87 43 21.7815 43 18V15.4415C43.0005 14.9167 42.8356 14.4051 42.5287 13.9794C42.2218 13.5536 41.7885 13.2354 41.2905 13.07ZM40.359 16.8585L38.223 18.9945C38.1356 19.0825 38.0316 19.1522 37.917 19.1997C37.8024 19.2472 37.6795 19.2714 37.5555 19.271H37.539C37.4124 19.2691 37.2876 19.2415 37.172 19.1899C37.0564 19.1383 36.9525 19.0639 36.8665 18.971L35.7135 17.771C35.6636 17.7247 35.6236 17.6686 35.5961 17.6063C35.5686 17.544 35.5542 17.4767 35.5536 17.4086C35.553 17.3405 35.5664 17.273 35.5929 17.2102C35.6193 17.1474 35.6583 17.0907 35.7075 17.0436C35.7566 16.9964 35.8149 16.9598 35.8787 16.936C35.9426 16.9122 36.0106 16.9017 36.0786 16.9051C36.1466 16.9085 36.2132 16.9258 36.2744 16.9558C36.3355 16.9859 36.3898 17.0282 36.434 17.08L37.556 18.25L39.65 16.15C39.7443 16.0589 39.8706 16.0085 40.0017 16.0097C40.1328 16.0108 40.2582 16.0634 40.3509 16.1561C40.4436 16.2488 40.4962 16.3742 40.4973 16.5053C40.4985 16.6364 40.4481 16.7627 40.357 16.857L40.359 16.8585Z" fill="white"/>
</g>
<path d="M54.38 20.08H51.98L51.53 21.5H50.07L52.49 14.61H53.89L56.29 21.5H54.8L54.38 20.08ZM52.35 18.93H54.01L53.74 18.05L53.2 16.23H53.16L52.63 18.02L52.35 18.93ZM57.487 20.29C57.6403 20.1767 57.7703 20.0433 57.877 19.89C57.9836 19.73 58.0703 19.5367 58.137 19.31C58.2103 19.0833 58.267 18.82 58.307 18.52C58.347 18.2133 58.377 17.8533 58.397 17.44L58.527 14.61H63.187C63.187 15.5633 63.187 16.5133 63.187 17.46C63.1936 18.4 63.197 19.3467 63.197 20.3H63.797V23.04H62.547V21.5H58.227V23.04H56.977V20.29H57.487ZM59.757 15.82L59.677 17.47C59.6636 17.7633 59.647 18.0433 59.627 18.31C59.607 18.57 59.577 18.82 59.537 19.06C59.497 19.2933 59.4403 19.5167 59.367 19.73C59.2936 19.9367 59.1936 20.1267 59.067 20.3H61.837V15.82H59.757ZM70.5121 17.8L69.8721 19.07L69.0921 20.55H68.1021L67.3321 19.1L66.6621 17.8H66.6221V21.5H65.2621V14.61H66.5221L67.7521 17.04L68.5821 18.74H68.6421L69.4821 17L70.6621 14.61H71.9221V21.5H70.5521V17.8H70.5121ZM77.7437 17.01L77.0637 18.06C76.9837 18.1867 76.8837 18.3433 76.7637 18.53C76.6503 18.71 76.5237 18.9067 76.3837 19.12C76.2437 19.3333 76.1003 19.5533 75.9537 19.78C75.807 20.0067 75.6637 20.2267 75.5237 20.44C75.3903 20.6533 75.2637 20.8533 75.1437 21.04C75.0237 21.22 74.9237 21.3733 74.8437 21.5H73.6037V14.61H74.9637V19.14H75.0037L76.4437 16.89L77.9137 14.61H79.1637V21.5H77.7937V17.01H77.7437ZM84.7517 21.5V18.62H82.2117V21.5H80.8417V14.61H82.2117V17.38H84.7517V14.61H86.1417V21.5H84.7517ZM91.9566 17.01L91.2766 18.06C91.1966 18.1867 91.0966 18.3433 90.9766 18.53C90.8632 18.71 90.7366 18.9067 90.5966 19.12C90.4566 19.3333 90.3132 19.5533 90.1666 19.78C90.0199 20.0067 89.8766 20.2267 89.7366 20.44C89.6032 20.6533 89.4766 20.8533 89.3566 21.04C89.2366 21.22 89.1366 21.3733 89.0566 21.5H87.8166V14.61H89.1766V19.14H89.2166L90.6566 16.89L92.1266 14.61H93.3766V21.5H92.0066V17.01H91.9566ZM99.1146 16.28C98.9013 16.1 98.6713 15.9767 98.4246 15.91C98.1779 15.8367 97.9379 15.8 97.7046 15.8C97.5513 15.8 97.3979 15.8233 97.2446 15.87C97.0913 15.91 96.9546 15.98 96.8346 16.08C96.7146 16.18 96.6146 16.31 96.5346 16.47C96.4613 16.63 96.4246 16.8233 96.4246 17.05V19.06C96.4246 19.2867 96.4613 19.48 96.5346 19.64C96.6146 19.7933 96.7146 19.92 96.8346 20.02C96.9613 20.12 97.0979 20.1933 97.2446 20.24C97.3979 20.2867 97.5513 20.31 97.7046 20.31C97.9379 20.31 98.1713 20.2767 98.4046 20.21C98.6446 20.1433 98.8846 20.0167 99.1246 19.83L99.7746 20.89C99.5213 21.1033 99.2113 21.27 98.8446 21.39C98.4779 21.51 98.0913 21.57 97.6846 21.57C97.3579 21.57 97.0379 21.5233 96.7246 21.43C96.4113 21.3367 96.1313 21.2 95.8846 21.02C95.6379 20.8333 95.4379 20.6033 95.2846 20.33C95.1313 20.05 95.0546 19.7233 95.0546 19.35V16.77C95.0546 16.4033 95.1279 16.0833 95.2746 15.81C95.4279 15.53 95.6246 15.2967 95.8646 15.11C96.1113 14.9233 96.3913 14.7833 96.7046 14.69C97.0179 14.5967 97.3379 14.55 97.6646 14.55C98.0646 14.55 98.4479 14.6033 98.8146 14.71C99.1879 14.8167 99.5079 14.9867 99.7746 15.22L99.1146 16.28ZM103.9 15.85V21.5H102.53V15.85H100.7V14.61H105.72V15.85H103.9ZM108.294 17.67H109.694C110.007 17.67 110.244 17.5833 110.404 17.41C110.564 17.2367 110.644 17.02 110.644 16.76C110.644 16.4933 110.56 16.2733 110.394 16.1C110.234 15.9267 110 15.84 109.694 15.84H108.294V17.67ZM110.004 14.61C110.344 14.61 110.637 14.6767 110.884 14.81C111.13 14.9367 111.334 15.1033 111.494 15.31C111.66 15.5167 111.78 15.75 111.854 16.01C111.934 16.2633 111.974 16.5133 111.974 16.76C111.974 17.0133 111.927 17.2667 111.834 17.52C111.747 17.7733 111.617 18.0033 111.444 18.21C111.277 18.4167 111.067 18.5867 110.814 18.72C110.567 18.8467 110.284 18.91 109.964 18.91H108.294V21.5H106.924V14.61H110.004ZM116.985 20.08H114.585L114.135 21.5H112.675L115.095 14.61H116.495L118.895 21.5H117.405L116.985 20.08ZM114.955 18.93H116.615L116.345 18.05L115.805 16.23H115.765L115.235 18.02L114.955 18.93ZM122.802 15.85V21.5H121.432V15.85H119.602V14.61H124.622V15.85H122.802ZM131.086 19.3C131.086 19.6733 131.016 20 130.876 20.28C130.736 20.56 130.546 20.7967 130.306 20.99C130.066 21.1833 129.783 21.33 129.456 21.43C129.136 21.5233 128.796 21.57 128.436 21.57C128.076 21.57 127.733 21.5233 127.406 21.43C127.086 21.33 126.806 21.1833 126.566 20.99C126.326 20.7967 126.136 20.56 125.996 20.28C125.856 20 125.786 19.6733 125.786 19.3V16.77C125.786 16.4033 125.859 16.08 126.006 15.8C126.153 15.52 126.349 15.2867 126.596 15.1C126.843 14.9133 127.126 14.7733 127.446 14.68C127.766 14.5867 128.096 14.54 128.436 14.54C128.776 14.54 129.106 14.59 129.426 14.69C129.746 14.79 130.029 14.9367 130.276 15.13C130.523 15.3167 130.719 15.5533 130.866 15.84C131.013 16.12 131.086 16.4433 131.086 16.81V19.3ZM129.706 17.05C129.706 16.8233 129.669 16.6333 129.596 16.48C129.523 16.32 129.426 16.19 129.306 16.09C129.186 15.99 129.049 15.9167 128.896 15.87C128.749 15.8233 128.596 15.8 128.436 15.8C128.276 15.8 128.119 15.8233 127.966 15.87C127.813 15.9167 127.676 15.99 127.556 16.09C127.436 16.19 127.339 16.32 127.266 16.48C127.193 16.6333 127.156 16.8233 127.156 17.05V19.06C127.156 19.2867 127.193 19.48 127.266 19.64C127.339 19.8 127.436 19.93 127.556 20.03C127.676 20.13 127.813 20.2033 127.966 20.25C128.119 20.29 128.276 20.31 128.436 20.31C128.596 20.31 128.749 20.29 128.896 20.25C129.049 20.2033 129.186 20.13 129.306 20.03C129.426 19.93 129.523 19.8 129.596 19.64C129.669 19.48 129.706 19.2867 129.706 19.06V17.05ZM134.073 17.67H135.473C135.786 17.67 136.023 17.5833 136.183 17.41C136.343 17.2367 136.423 17.02 136.423 16.76C136.423 16.4933 136.34 16.2733 136.173 16.1C136.013 15.9267 135.78 15.84 135.473 15.84H134.073V17.67ZM135.783 14.61C136.123 14.61 136.416 14.6767 136.663 14.81C136.91 14.9367 137.113 15.1033 137.273 15.31C137.44 15.5167 137.56 15.75 137.633 16.01C137.713 16.2633 137.753 16.5133 137.753 16.76C137.753 17.0133 137.706 17.2667 137.613 17.52C137.526 17.7733 137.396 18.0033 137.223 18.21C137.056 18.4167 136.846 18.5867 136.593 18.72C136.346 18.8467 136.063 18.91 135.743 18.91H134.073V21.5H132.703V14.61H135.783Z" fill="white"/>
<path d="M159 1H10C5.02944 1 1 5.02944 1 10V25C1 29.9706 5.02944 34 10 34H159C163.971 34 168 29.9706 168 25V10C168 5.02944 163.971 1 159 1Z" stroke="url(#paint2_linear_2003_101)" stroke-width="2"/>
</g>
</g>
<defs>
<linearGradient id="paint0_linear_2003_101" x1="169" y1="35" x2="1.12391e-06" y2="-5.4269e-06" gradientUnits="userSpaceOnUse">
<stop stop-color="#171946"/>
<stop offset="0.501962" stop-color="#333AFF"/>
<stop offset="1" stop-color="#171946"/>
</linearGradient>
<linearGradient id="paint1_linear_2003_101" x1="94.2335" y1="19.0034" x2="93.5358" y2="-9.08058" gradientUnits="userSpaceOnUse">
<stop stop-color="white"/>
<stop offset="1" stop-color="#999999" stop-opacity="0"/>
</linearGradient>
<linearGradient id="paint2_linear_2003_101" x1="84" y1="35" x2="84" y2="-4.23554e-06" gradientUnits="userSpaceOnUse">
<stop stop-color="#7F83FF"/>
<stop offset="1" stop-color="#7495FF" stop-opacity="0"/>
</linearGradient>
<clipPath id="clip0_2003_101">
<rect width="169" height="35" fill="white"/>
</clipPath>
</defs>
</svg>
