<svg width="169" height="35" viewBox="0 0 169 35" fill="none" xmlns="http://www.w3.org/2000/svg">
<g clip-path="url(#clip0_2003_40)">
<mask id="mask0_2003_40" style="mask-type:luminance" maskUnits="userSpaceOnUse" x="0" y="0" width="169" height="35">
<path d="M169 0H0V35H169V0Z" fill="white"/>
</mask>
<g mask="url(#mask0_2003_40)">
<path d="M159 0H10C4.47715 0 0 4.47715 0 10V25C0 30.5228 4.47715 35 10 35H159C164.523 35 169 30.5228 169 25V10C169 4.47715 164.523 0 159 0Z" fill="url(#paint0_linear_2003_40)"/>
<mask id="mask1_2003_40" style="mask-type:alpha" maskUnits="userSpaceOnUse" x="0" y="0" width="169" height="35">
<path d="M159 0H10C4.47715 0 0 4.47715 0 10V25C0 30.5228 4.47715 35 10 35H159C164.523 35 169 30.5228 169 25V10C169 4.47715 164.523 0 159 0Z" fill="#2A2A2A"/>
</mask>
<g mask="url(#mask1_2003_40)">
<path d="M-23.4211 -77.6775C80.4929 -158.518 99.8185 -279.576 96.4919 -330C48.4798 -180.255 -86.9996 -103.77 -148.738 -84.2459C49.692 106.215 255.27 -10.7057 333.256 -92.9738C227.758 -104.311 143.954 -243.042 115.239 -310.991C121.754 -195.636 45.6125 -111.052 6.72755 -83.1796C74.3656 -92.7148 119.672 -141.149 133.87 -164.175C170.789 -111.737 221.531 -79.1352 242.286 -69.3891C130.82 -8.47406 18.7037 -49.5335 -23.4211 -77.6775Z" fill="url(#paint1_linear_2003_40)" fill-opacity="0.3" style="mix-blend-mode:overlay"/>
</g>
<mask id="mask2_2003_40" style="mask-type:luminance" maskUnits="userSpaceOnUse" x="26" y="12" width="12" height="12">
<path d="M38 12H26V24H38V12Z" fill="white"/>
</mask>
<g mask="url(#mask2_2003_40)">
<path d="M35.2905 13.07L32.158 12.0255C32.0554 11.9913 31.9446 11.9913 31.842 12.0255L28.7095 13.07C28.2115 13.2354 27.7782 13.5536 27.4713 13.9794C27.1644 14.4051 26.9995 14.9167 27 15.4415V18C27 21.7815 31.6 23.87 31.797 23.957C31.8609 23.9854 31.9301 24.0001 32 24.0001C32.0699 24.0001 32.1391 23.9854 32.203 23.957C32.4 23.87 37 21.7815 37 18V15.4415C37.0005 14.9167 36.8356 14.4051 36.5287 13.9794C36.2218 13.5536 35.7885 13.2354 35.2905 13.07ZM34.359 16.8585L32.223 18.9945C32.1356 19.0825 32.0316 19.1522 31.917 19.1997C31.8024 19.2472 31.6795 19.2714 31.5555 19.271H31.539C31.4124 19.2691 31.2876 19.2415 31.172 19.1899C31.0564 19.1383 30.9525 19.0639 30.8665 18.971L29.7135 17.771C29.6636 17.7247 29.6236 17.6686 29.5961 17.6063C29.5686 17.544 29.5542 17.4767 29.5536 17.4086C29.553 17.3405 29.5664 17.273 29.5929 17.2102C29.6193 17.1474 29.6583 17.0907 29.7075 17.0436C29.7566 16.9964 29.8149 16.9598 29.8787 16.936C29.9426 16.9122 30.0106 16.9017 30.0786 16.9051C30.1466 16.9085 30.2132 16.9258 30.2744 16.9558C30.3355 16.9859 30.3898 17.0282 30.434 17.08L31.556 18.25L33.65 16.15C33.7443 16.0589 33.8706 16.0085 34.0017 16.0097C34.1328 16.0108 34.2582 16.0634 34.3509 16.1561C34.4436 16.2488 34.4962 16.3742 34.4973 16.5053C34.4985 16.6364 34.4481 16.7627 34.357 16.857L34.359 16.8585Z" fill="white"/>
</g>
<path d="M44.65 21.5V14.61H49.39V15.84H46.02V21.5H44.65ZM51.9916 15.84V17.67C51.9916 18.2433 51.9582 18.7633 51.8916 19.23C51.8249 19.6967 51.7049 20.1 51.5316 20.44C51.3582 20.78 51.1149 21.0533 50.8016 21.26C50.4949 21.4667 50.0982 21.6033 49.6116 21.67L49.3116 20.55C49.5982 20.4567 49.8282 20.3367 50.0016 20.19C50.1749 20.0433 50.3082 19.8567 50.4016 19.63C50.5016 19.4033 50.5649 19.1333 50.5916 18.82C50.6249 18.5067 50.6416 18.1367 50.6416 17.71V14.61H55.1816V21.5H53.7916V15.84H51.9916ZM57.2862 21.57C57.0595 21.57 56.8695 21.49 56.7162 21.33C56.5695 21.17 56.4962 20.9767 56.4962 20.75C56.4962 20.5367 56.5695 20.3567 56.7162 20.21C56.8695 20.0567 57.0562 19.98 57.2762 19.98C57.5028 19.98 57.6895 20.0567 57.8362 20.21C57.9895 20.3567 58.0662 20.5367 58.0662 20.75C58.0662 20.97 57.9962 21.1633 57.8562 21.33C57.7162 21.49 57.5262 21.57 57.2862 21.57ZM65.6261 20.08H63.2261L62.7761 21.5H61.3161L63.7361 14.61H65.1361L67.5361 21.5H66.0461L65.6261 20.08ZM63.5961 18.93H65.2561L64.9861 18.05L64.4461 16.23H64.4061L63.8761 18.02L63.5961 18.93ZM68.233 20.29C68.3864 20.1767 68.5164 20.0433 68.623 19.89C68.7297 19.73 68.8164 19.5367 68.883 19.31C68.9564 19.0833 69.013 18.82 69.053 18.52C69.093 18.2133 69.123 17.8533 69.143 17.44L69.273 14.61H73.933C73.933 15.5633 73.933 16.5133 73.933 17.46C73.9397 18.4 73.943 19.3467 73.943 20.3H74.543V23.04H73.293V21.5H68.973V23.04H67.723V20.29H68.233ZM70.503 15.82L70.423 17.47C70.4097 17.7633 70.393 18.0433 70.373 18.31C70.353 18.57 70.323 18.82 70.283 19.06C70.243 19.2933 70.1864 19.5167 70.113 19.73C70.0397 19.9367 69.9397 20.1267 69.813 20.3H72.583V15.82H70.503ZM80.7582 17.8L80.1182 19.07L79.3382 20.55H78.3482L77.5782 19.1L76.9082 17.8H76.8682V21.5H75.5082V14.61H76.7682L77.9982 17.04L78.8282 18.74H78.8882L79.7282 17L80.9082 14.61H82.1682V21.5H80.7982V17.8H80.7582ZM87.4898 17.01L86.8098 18.06C86.7298 18.1867 86.6298 18.3433 86.5098 18.53C86.3964 18.71 86.2698 18.9067 86.1298 19.12C85.9898 19.3333 85.8464 19.5533 85.6998 19.78C85.5531 20.0067 85.4098 20.2267 85.2698 20.44C85.1364 20.6533 85.0098 20.8533 84.8898 21.04C84.7698 21.22 84.6698 21.3733 84.5898 21.5H83.3498V14.61H84.7098V19.14H84.7498L86.1898 16.89L87.6598 14.61H88.9098V21.5H87.5398V17.01H87.4898ZM93.9978 21.5V18.62H91.4578V21.5H90.0878V14.61H91.4578V17.38H93.9978V14.61H95.3878V21.5H93.9978ZM100.703 17.01L100.023 18.06C99.9427 18.1867 99.8427 18.3433 99.7227 18.53C99.6093 18.71 99.4827 18.9067 99.3427 19.12C99.2027 19.3333 99.0593 19.5533 98.9127 19.78C98.766 20.0067 98.6227 20.2267 98.4827 20.44C98.3493 20.6533 98.2227 20.8533 98.1027 21.04C97.9827 21.22 97.8827 21.3733 97.8027 21.5H96.5627V14.61H97.9227V19.14H97.9627L99.4027 16.89L100.873 14.61H102.123V21.5H100.753V17.01H100.703ZM107.361 16.28C107.147 16.1 106.917 15.9767 106.671 15.91C106.424 15.8367 106.184 15.8 105.951 15.8C105.797 15.8 105.644 15.8233 105.491 15.87C105.337 15.91 105.201 15.98 105.081 16.08C104.961 16.18 104.861 16.31 104.781 16.47C104.707 16.63 104.671 16.8233 104.671 17.05V19.06C104.671 19.2867 104.707 19.48 104.781 19.64C104.861 19.7933 104.961 19.92 105.081 20.02C105.207 20.12 105.344 20.1933 105.491 20.24C105.644 20.2867 105.797 20.31 105.951 20.31C106.184 20.31 106.417 20.2767 106.651 20.21C106.891 20.1433 107.131 20.0167 107.371 19.83L108.021 20.89C107.767 21.1033 107.457 21.27 107.091 21.39C106.724 21.51 106.337 21.57 105.931 21.57C105.604 21.57 105.284 21.5233 104.971 21.43C104.657 21.3367 104.377 21.2 104.131 21.02C103.884 20.8333 103.684 20.6033 103.531 20.33C103.377 20.05 103.301 19.7233 103.301 19.35V16.77C103.301 16.4033 103.374 16.0833 103.521 15.81C103.674 15.53 103.871 15.2967 104.111 15.11C104.357 14.9233 104.637 14.7833 104.951 14.69C105.264 14.5967 105.584 14.55 105.911 14.55C106.311 14.55 106.694 14.6033 107.061 14.71C107.434 14.8167 107.754 14.9867 108.021 15.22L107.361 16.28ZM111.646 15.85V21.5H110.276V15.85H108.446V14.61H113.466V15.85H111.646ZM115.54 17.67H116.94C117.253 17.67 117.49 17.5833 117.65 17.41C117.81 17.2367 117.89 17.02 117.89 16.76C117.89 16.4933 117.807 16.2733 117.64 16.1C117.48 15.9267 117.247 15.84 116.94 15.84H115.54V17.67ZM117.25 14.61C117.59 14.61 117.883 14.6767 118.13 14.81C118.377 14.9367 118.58 15.1033 118.74 15.31C118.907 15.5167 119.027 15.75 119.1 16.01C119.18 16.2633 119.22 16.5133 119.22 16.76C119.22 17.0133 119.173 17.2667 119.08 17.52C118.993 17.7733 118.863 18.0033 118.69 18.21C118.523 18.4167 118.313 18.5867 118.06 18.72C117.813 18.8467 117.53 18.91 117.21 18.91H115.54V21.5H114.17V14.61H117.25ZM123.732 20.08H121.332L120.882 21.5H119.422L121.842 14.61H123.242L125.642 21.5H124.152L123.732 20.08ZM121.702 18.93H123.362L123.092 18.05L122.552 16.23H122.512L121.982 18.02L121.702 18.93ZM129.049 15.85V21.5H127.679V15.85H125.849V14.61H130.869V15.85H129.049ZM136.832 19.3C136.832 19.6733 136.762 20 136.622 20.28C136.482 20.56 136.292 20.7967 136.052 20.99C135.812 21.1833 135.529 21.33 135.202 21.43C134.882 21.5233 134.542 21.57 134.182 21.57C133.822 21.57 133.479 21.5233 133.152 21.43C132.832 21.33 132.552 21.1833 132.312 20.99C132.072 20.7967 131.882 20.56 131.742 20.28C131.602 20 131.532 19.6733 131.532 19.3V16.77C131.532 16.4033 131.606 16.08 131.752 15.8C131.899 15.52 132.096 15.2867 132.342 15.1C132.589 14.9133 132.872 14.7733 133.192 14.68C133.512 14.5867 133.842 14.54 134.182 14.54C134.522 14.54 134.852 14.59 135.172 14.69C135.492 14.79 135.776 14.9367 136.022 15.13C136.269 15.3167 136.466 15.5533 136.612 15.84C136.759 16.12 136.832 16.4433 136.832 16.81V19.3ZM135.452 17.05C135.452 16.8233 135.416 16.6333 135.342 16.48C135.269 16.32 135.172 16.19 135.052 16.09C134.932 15.99 134.796 15.9167 134.642 15.87C134.496 15.8233 134.342 15.8 134.182 15.8C134.022 15.8 133.866 15.8233 133.712 15.87C133.559 15.9167 133.422 15.99 133.302 16.09C133.182 16.19 133.086 16.32 133.012 16.48C132.939 16.6333 132.902 16.8233 132.902 17.05V19.06C132.902 19.2867 132.939 19.48 133.012 19.64C133.086 19.8 133.182 19.93 133.302 20.03C133.422 20.13 133.559 20.2033 133.712 20.25C133.866 20.29 134.022 20.31 134.182 20.31C134.342 20.31 134.496 20.29 134.642 20.25C134.796 20.2033 134.932 20.13 135.052 20.03C135.172 19.93 135.269 19.8 135.342 19.64C135.416 19.48 135.452 19.2867 135.452 19.06V17.05ZM139.319 17.67H140.719C141.032 17.67 141.269 17.5833 141.429 17.41C141.589 17.2367 141.669 17.02 141.669 16.76C141.669 16.4933 141.586 16.2733 141.419 16.1C141.259 15.9267 141.026 15.84 140.719 15.84H139.319V17.67ZM141.029 14.61C141.369 14.61 141.662 14.6767 141.909 14.81C142.156 14.9367 142.359 15.1033 142.519 15.31C142.686 15.5167 142.806 15.75 142.879 16.01C142.959 16.2633 142.999 16.5133 142.999 16.76C142.999 17.0133 142.952 17.2667 142.859 17.52C142.772 17.7733 142.642 18.0033 142.469 18.21C142.302 18.4167 142.092 18.5867 141.839 18.72C141.592 18.8467 141.309 18.91 140.989 18.91H139.319V21.5H137.949V14.61H141.029Z" fill="white"/>
<path d="M159 1H10C5.02944 1 1 5.02944 1 10V25C1 29.9706 5.02944 34 10 34H159C163.971 34 168 29.9706 168 25V10C168 5.02944 163.971 1 159 1Z" stroke="url(#paint2_linear_2003_40)" stroke-width="2"/>
</g>
</g>
<defs>
<linearGradient id="paint0_linear_2003_40" x1="169" y1="35" x2="1.12391e-06" y2="-5.4269e-06" gradientUnits="userSpaceOnUse">
<stop stop-color="#274C2D"/>
<stop offset="0.501962" stop-color="#179319"/>
<stop offset="1" stop-color="#274C2D"/>
</linearGradient>
<linearGradient id="paint1_linear_2003_40" x1="94.2335" y1="19.0034" x2="93.5358" y2="-9.08055" gradientUnits="userSpaceOnUse">
<stop stop-color="white"/>
<stop offset="1" stop-color="#999999" stop-opacity="0"/>
</linearGradient>
<linearGradient id="paint2_linear_2003_40" x1="84" y1="35" x2="84" y2="-4.23554e-06" gradientUnits="userSpaceOnUse">
<stop stop-color="#7AFF7C"/>
<stop offset="1" stop-color="#6BFF81" stop-opacity="0"/>
</linearGradient>
<clipPath id="clip0_2003_40">
<rect width="169" height="35" fill="white"/>
</clipPath>
</defs>
</svg>
