<svg width="169" height="35" viewBox="0 0 169 35" fill="none" xmlns="http://www.w3.org/2000/svg">
<g clip-path="url(#clip0_2025_2)">
<mask id="mask0_2025_2" style="mask-type:luminance" maskUnits="userSpaceOnUse" x="0" y="0" width="169" height="35">
<path d="M169 0H0V35H169V0Z" fill="white"/>
</mask>
<g mask="url(#mask0_2025_2)">
<mask id="mask1_2025_2" style="mask-type:luminance" maskUnits="userSpaceOnUse" x="0" y="0" width="169" height="35">
<path d="M169 0H0V35H169V0Z" fill="white"/>
</mask>
<g mask="url(#mask1_2025_2)">
<path d="M159 0H10C4.47715 0 0 4.47715 0 10V25C0 30.5228 4.47715 35 10 35H159C164.523 35 169 30.5228 169 25V10C169 4.47715 164.523 0 159 0Z" fill="url(#paint0_linear_2025_2)"/>
<mask id="mask2_2025_2" style="mask-type:alpha" maskUnits="userSpaceOnUse" x="0" y="0" width="169" height="35">
<path d="M159 0H10C4.47715 0 0 4.47715 0 10V25C0 30.5228 4.47715 35 10 35H159C164.523 35 169 30.5228 169 25V10C169 4.47715 164.523 0 159 0Z" fill="#2A2A2A"/>
</mask>
<g mask="url(#mask2_2025_2)">
<path d="M-23.4211 -77.6775C80.4929 -158.518 99.8185 -279.576 96.4919 -330C48.4798 -180.255 -86.9996 -103.77 -148.738 -84.2459C49.692 106.215 255.27 -10.7057 333.256 -92.9738C227.758 -104.311 143.954 -243.042 115.239 -310.991C121.754 -195.636 45.6125 -111.052 6.72754 -83.1796C74.3656 -92.7148 119.672 -141.149 133.87 -164.175C170.789 -111.737 221.531 -79.1352 242.286 -69.3891C130.82 -8.47406 18.7037 -49.5335 -23.4211 -77.6775Z" fill="url(#paint1_linear_2025_2)" fill-opacity="0.3" style="mix-blend-mode:overlay"/>
</g>
<mask id="mask3_2025_2" style="mask-type:luminance" maskUnits="userSpaceOnUse" x="53" y="12" width="12" height="12">
<path d="M65 12H53V24H65V12Z" fill="white"/>
</mask>
<g mask="url(#mask3_2025_2)">
<path d="M62.2905 13.07L59.158 12.0255C59.0554 11.9913 58.9446 11.9913 58.842 12.0255L55.7095 13.07C55.2115 13.2354 54.7782 13.5536 54.4713 13.9794C54.1644 14.4051 53.9995 14.9167 54 15.4415V18C54 21.7815 58.6 23.87 58.797 23.957C58.8609 23.9854 58.9301 24.0001 59 24.0001C59.0699 24.0001 59.1391 23.9854 59.203 23.957C59.4 23.87 64 21.7815 64 18V15.4415C64.0005 14.9167 63.8356 14.4051 63.5287 13.9794C63.2218 13.5536 62.7885 13.2354 62.2905 13.07ZM61.359 16.8585L59.223 18.9945C59.1356 19.0825 59.0316 19.1522 58.917 19.1997C58.8024 19.2472 58.6795 19.2714 58.5555 19.271H58.539C58.4124 19.2691 58.2876 19.2415 58.172 19.1899C58.0564 19.1383 57.9525 19.0639 57.8665 18.971L56.7135 17.771C56.6636 17.7247 56.6236 17.6686 56.5961 17.6063C56.5686 17.544 56.5542 17.4767 56.5536 17.4086C56.553 17.3405 56.5664 17.273 56.5929 17.2102C56.6193 17.1474 56.6583 17.0907 56.7075 17.0436C56.7566 16.9964 56.8149 16.9598 56.8787 16.936C56.9426 16.9122 57.0106 16.9017 57.0786 16.9051C57.1466 16.9085 57.2132 16.9258 57.2744 16.9558C57.3355 16.9859 57.3898 17.0282 57.434 17.08L58.556 18.25L60.65 16.15C60.7443 16.0589 60.8706 16.0085 61.0017 16.0097C61.1328 16.0108 61.2582 16.0634 61.3509 16.1561C61.4436 16.2488 61.4962 16.3742 61.4973 16.5053C61.4985 16.6364 61.4481 16.7627 61.357 16.857L61.359 16.8585Z" fill="white"/>
</g>
<path d="M71.59 21.5V14.61H72.96V17.38H73.66C73.7933 17.38 73.9167 17.37 74.03 17.35C74.15 17.3233 74.2567 17.28 74.35 17.22C74.45 17.1533 74.5367 17.0633 74.61 16.95C74.69 16.83 74.76 16.68 74.82 16.5L75.42 14.61H76.82L76.2 16.62C76.0933 16.96 75.9567 17.2433 75.79 17.47C75.6233 17.6967 75.4333 17.8467 75.22 17.92C75.5067 18.0133 75.73 18.18 75.89 18.42C76.05 18.6533 76.18 18.94 76.28 19.28L76.94 21.5H75.45L74.88 19.5C74.8267 19.3133 74.76 19.16 74.68 19.04C74.6067 18.92 74.52 18.8267 74.42 18.76C74.3267 18.6933 74.22 18.65 74.1 18.63C73.98 18.6033 73.85 18.59 73.71 18.59H72.96V21.5H71.59ZM81.3214 19.84C81.0814 20.4733 80.8047 20.9233 80.4914 21.19C80.1847 21.45 79.7981 21.58 79.3314 21.58H78.6014V20.49H79.2214C79.3947 20.49 79.5314 20.46 79.6314 20.4C79.7314 20.34 79.8147 20.24 79.8814 20.1C79.8947 20.0667 79.9081 20.0367 79.9214 20.01C79.9347 19.9833 79.9481 19.9567 79.9614 19.93L77.7814 14.61H79.2114L80.0314 16.85C80.1447 17.1567 80.2447 17.4433 80.3314 17.71C80.4247 17.9767 80.5014 18.1967 80.5614 18.37H80.6114L81.1614 16.77C81.1747 16.73 81.2014 16.6533 81.2414 16.54C81.2881 16.42 81.3381 16.2833 81.3914 16.13C81.4447 15.9767 81.5014 15.8167 81.5614 15.65C81.6214 15.4833 81.6781 15.3267 81.7314 15.18C81.7847 15.0333 81.8281 14.91 81.8614 14.81C81.9014 14.7033 81.9247 14.6367 81.9314 14.61H83.2914L81.3214 19.84ZM85.8445 17.67H87.2445C87.5579 17.67 87.7945 17.5833 87.9545 17.41C88.1145 17.2367 88.1945 17.02 88.1945 16.76C88.1945 16.4933 88.1112 16.2733 87.9445 16.1C87.7845 15.9267 87.5512 15.84 87.2445 15.84H85.8445V17.67ZM87.5545 14.61C87.8945 14.61 88.1879 14.6767 88.4345 14.81C88.6812 14.9367 88.8845 15.1033 89.0445 15.31C89.2112 15.5167 89.3312 15.75 89.4045 16.01C89.4845 16.2633 89.5245 16.5133 89.5245 16.76C89.5245 17.0133 89.4779 17.2667 89.3845 17.52C89.2979 17.7733 89.1679 18.0033 88.9945 18.21C88.8279 18.4167 88.6179 18.5867 88.3645 18.72C88.1179 18.8467 87.8345 18.91 87.5145 18.91H85.8445V21.5H84.4745V14.61H87.5545ZM94.5363 20.08H92.1363L91.6863 21.5H90.2263L92.6463 14.61H94.0463L96.4463 21.5H94.9563L94.5363 20.08ZM92.5063 18.93H94.1663L93.8963 18.05L93.3563 16.23H93.3163L92.7863 18.02L92.5063 18.93ZM100.353 15.85V21.5H98.9832V15.85H97.1532V14.61H102.173V15.85H100.353ZM108.637 19.3C108.637 19.6733 108.567 20 108.427 20.28C108.287 20.56 108.097 20.7967 107.857 20.99C107.617 21.1833 107.334 21.33 107.007 21.43C106.687 21.5233 106.347 21.57 105.987 21.57C105.627 21.57 105.284 21.5233 104.957 21.43C104.637 21.33 104.357 21.1833 104.117 20.99C103.877 20.7967 103.687 20.56 103.547 20.28C103.407 20 103.337 19.6733 103.337 19.3V16.77C103.337 16.4033 103.41 16.08 103.557 15.8C103.704 15.52 103.9 15.2867 104.147 15.1C104.394 14.9133 104.677 14.7733 104.997 14.68C105.317 14.5867 105.647 14.54 105.987 14.54C106.327 14.54 106.657 14.59 106.977 14.69C107.297 14.79 107.58 14.9367 107.827 15.13C108.074 15.3167 108.27 15.5533 108.417 15.84C108.564 16.12 108.637 16.4433 108.637 16.81V19.3ZM107.257 17.05C107.257 16.8233 107.22 16.6333 107.147 16.48C107.074 16.32 106.977 16.19 106.857 16.09C106.737 15.99 106.6 15.9167 106.447 15.87C106.3 15.8233 106.147 15.8 105.987 15.8C105.827 15.8 105.67 15.8233 105.517 15.87C105.364 15.9167 105.227 15.99 105.107 16.09C104.987 16.19 104.89 16.32 104.817 16.48C104.744 16.6333 104.707 16.8233 104.707 17.05V19.06C104.707 19.2867 104.744 19.48 104.817 19.64C104.89 19.8 104.987 19.93 105.107 20.03C105.227 20.13 105.364 20.2033 105.517 20.25C105.67 20.29 105.827 20.31 105.987 20.31C106.147 20.31 106.3 20.29 106.447 20.25C106.6 20.2033 106.737 20.13 106.857 20.03C106.977 19.93 107.074 19.8 107.147 19.64C107.22 19.48 107.257 19.2867 107.257 19.06V17.05ZM111.624 17.67H113.024C113.337 17.67 113.574 17.5833 113.734 17.41C113.894 17.2367 113.974 17.02 113.974 16.76C113.974 16.4933 113.89 16.2733 113.724 16.1C113.564 15.9267 113.33 15.84 113.024 15.84H111.624V17.67ZM113.334 14.61C113.674 14.61 113.967 14.6767 114.214 14.81C114.46 14.9367 114.664 15.1033 114.824 15.31C114.99 15.5167 115.11 15.75 115.184 16.01C115.264 16.2633 115.304 16.5133 115.304 16.76C115.304 17.0133 115.257 17.2667 115.164 17.52C115.077 17.7733 114.947 18.0033 114.774 18.21C114.607 18.4167 114.397 18.5867 114.144 18.72C113.897 18.8467 113.614 18.91 113.294 18.91H111.624V21.5H110.254V14.61H113.334Z" fill="white"/>
<path d="M159 1H10C5.02944 1 1 5.02944 1 10V25C1 29.9706 5.02944 34 10 34H159C163.971 34 168 29.9706 168 25V10C168 5.02944 163.971 1 159 1Z" stroke="url(#paint2_linear_2025_2)" stroke-width="2"/>
</g>
</g>
</g>
<defs>
<linearGradient id="paint0_linear_2025_2" x1="169" y1="35" x2="1.12391e-06" y2="-5.4269e-06" gradientUnits="userSpaceOnUse">
<stop stop-color="#4A3D58"/>
<stop offset="0.501962" stop-color="#986CB2"/>
<stop offset="1" stop-color="#4A3D58"/>
</linearGradient>
<linearGradient id="paint1_linear_2025_2" x1="94.2335" y1="19.0034" x2="93.5358" y2="-9.08057" gradientUnits="userSpaceOnUse">
<stop stop-color="white"/>
<stop offset="1" stop-color="#999999" stop-opacity="0"/>
</linearGradient>
<linearGradient id="paint2_linear_2025_2" x1="84" y1="35" x2="84" y2="-4.23554e-06" gradientUnits="userSpaceOnUse">
<stop stop-color="#E167FF"/>
<stop offset="1" stop-color="#E167FF" stop-opacity="0"/>
</linearGradient>
<clipPath id="clip0_2025_2">
<rect width="169" height="35" fill="white"/>
</clipPath>
</defs>
</svg>
