<svg width="169" height="35" viewBox="0 0 169 35" fill="none" xmlns="http://www.w3.org/2000/svg">
<g clip-path="url(#clip0_2003_59)">
<mask id="mask0_2003_59" style="mask-type:luminance" maskUnits="userSpaceOnUse" x="0" y="0" width="169" height="35">
<path d="M169 0H0V35H169V0Z" fill="white"/>
</mask>
<g mask="url(#mask0_2003_59)">
<mask id="mask1_2003_59" style="mask-type:luminance" maskUnits="userSpaceOnUse" x="0" y="0" width="169" height="35">
<path d="M169 0H0V35H169V0Z" fill="white"/>
</mask>
<g mask="url(#mask1_2003_59)">
<path d="M159 0H10C4.47715 0 0 4.47715 0 10V25C0 30.5228 4.47715 35 10 35H159C164.523 35 169 30.5228 169 25V10C169 4.47715 164.523 0 159 0Z" fill="url(#paint0_linear_2003_59)"/>
<mask id="mask2_2003_59" style="mask-type:alpha" maskUnits="userSpaceOnUse" x="0" y="0" width="169" height="35">
<path d="M159 0H10C4.47715 0 0 4.47715 0 10V25C0 30.5228 4.47715 35 10 35H159C164.523 35 169 30.5228 169 25V10C169 4.47715 164.523 0 159 0Z" fill="#2A2A2A"/>
</mask>
<g mask="url(#mask2_2003_59)">
<path d="M-23.4211 -77.6775C80.4929 -158.518 99.8185 -279.576 96.4919 -330C48.4798 -180.255 -86.9996 -103.77 -148.738 -84.2459C49.692 106.215 255.27 -10.7057 333.256 -92.9738C227.758 -104.311 143.954 -243.042 115.239 -310.991C121.754 -195.636 45.6125 -111.052 6.72754 -83.1796C74.3656 -92.7148 119.672 -141.149 133.87 -164.175C170.789 -111.737 221.531 -79.1352 242.286 -69.3891C130.82 -8.47406 18.7037 -49.5335 -23.4211 -77.6775Z" fill="url(#paint1_linear_2003_59)" fill-opacity="0.3" style="mix-blend-mode:overlay"/>
</g>
<mask id="mask3_2003_59" style="mask-type:luminance" maskUnits="userSpaceOnUse" x="32" y="12" width="12" height="12">
<path d="M44 12H32V24H44V12Z" fill="white"/>
</mask>
<g mask="url(#mask3_2003_59)">
<path d="M41.2905 13.07L38.158 12.0255C38.0554 11.9913 37.9446 11.9913 37.842 12.0255L34.7095 13.07C34.2115 13.2354 33.7782 13.5536 33.4713 13.9794C33.1644 14.4051 32.9995 14.9167 33 15.4415V18C33 21.7815 37.6 23.87 37.797 23.957C37.8609 23.9854 37.9301 24.0001 38 24.0001C38.0699 24.0001 38.1391 23.9854 38.203 23.957C38.4 23.87 43 21.7815 43 18V15.4415C43.0005 14.9167 42.8356 14.4051 42.5287 13.9794C42.2218 13.5536 41.7885 13.2354 41.2905 13.07ZM40.359 16.8585L38.223 18.9945C38.1356 19.0825 38.0316 19.1522 37.917 19.1997C37.8024 19.2472 37.6795 19.2714 37.5555 19.271H37.539C37.4124 19.2691 37.2876 19.2415 37.172 19.1899C37.0564 19.1383 36.9525 19.0639 36.8665 18.971L35.7135 17.771C35.6636 17.7247 35.6236 17.6686 35.5961 17.6063C35.5686 17.544 35.5542 17.4767 35.5536 17.4086C35.553 17.3405 35.5664 17.273 35.5929 17.2102C35.6193 17.1474 35.6583 17.0907 35.7075 17.0436C35.7566 16.9964 35.8149 16.9598 35.8787 16.936C35.9426 16.9122 36.0106 16.9017 36.0786 16.9051C36.1466 16.9085 36.2132 16.9258 36.2744 16.9558C36.3355 16.9859 36.3898 17.0282 36.434 17.08L37.556 18.25L39.65 16.15C39.7443 16.0589 39.8706 16.0085 40.0017 16.0097C40.1328 16.0108 40.2582 16.0634 40.3509 16.1561C40.4436 16.2488 40.4962 16.3742 40.4973 16.5053C40.4985 16.6364 40.4481 16.7627 40.357 16.857L40.359 16.8585Z" fill="white"/>
</g>
<path d="M52.62 14.55C52.9333 14.55 53.2333 14.5833 53.52 14.65C53.8067 14.7167 54.06 14.8267 54.28 14.98C54.5 15.1267 54.6733 15.32 54.8 15.56C54.9333 15.8 55 16.0933 55 16.44C55 16.7733 54.9133 17.07 54.74 17.33C54.5733 17.59 54.3467 17.7867 54.06 17.92C54.3933 18.0467 54.6433 18.2467 54.81 18.52C54.9833 18.7933 55.07 19.0933 55.07 19.42C55.07 19.8 54.9967 20.1267 54.85 20.4C54.71 20.6667 54.52 20.89 54.28 21.07C54.0467 21.2433 53.7733 21.37 53.46 21.45C53.1533 21.53 52.83 21.57 52.49 21.57C52.2567 21.57 52.0267 21.5533 51.8 21.52C51.5733 21.4933 51.3533 21.45 51.14 21.39C50.9333 21.33 50.74 21.2567 50.56 21.17C50.38 21.0833 50.2233 20.9833 50.09 20.87L50.8 19.86C50.9 19.94 51.0167 20.0133 51.15 20.08C51.2833 20.14 51.4233 20.19 51.57 20.23C51.7167 20.27 51.86 20.3033 52 20.33C52.1467 20.35 52.2767 20.36 52.39 20.36C52.8167 20.36 53.14 20.2733 53.36 20.1C53.5867 19.92 53.7 19.6833 53.7 19.39C53.7 19.09 53.5967 18.8667 53.39 18.72C53.1833 18.5667 52.91 18.49 52.57 18.49H51.65V17.41H52.53C52.6767 17.41 52.8133 17.39 52.94 17.35C53.0733 17.31 53.19 17.2533 53.29 17.18C53.39 17.1067 53.47 17.0133 53.53 16.9C53.59 16.7867 53.62 16.66 53.62 16.52C53.62 16.3733 53.5867 16.25 53.52 16.15C53.4533 16.05 53.3667 15.97 53.26 15.91C53.1533 15.8433 53.03 15.7967 52.89 15.77C52.7567 15.7433 52.6167 15.73 52.47 15.73C52.2433 15.73 51.9933 15.7733 51.72 15.86C51.4467 15.94 51.2133 16.0633 51.02 16.23L50.35 15.25C50.6367 15.0233 50.9733 14.85 51.36 14.73C51.7467 14.61 52.1667 14.55 52.62 14.55ZM60.378 20.08H57.978L57.528 21.5H56.068L58.488 14.61H59.888L62.288 21.5H60.798L60.378 20.08ZM58.348 18.93H60.008L59.738 18.05L59.198 16.23H59.158L58.628 18.02L58.348 18.93ZM68.725 17.8L68.085 19.07L67.305 20.55H66.315L65.545 19.1L64.875 17.8H64.835V21.5H63.475V14.61H64.735L65.965 17.04L66.795 18.74H66.855L67.695 17L68.875 14.61H70.135V21.5H68.765V17.8H68.725ZM71.8266 14.61H76.5766V15.84H73.1966V17.42H76.0866V18.65H73.1966V20.28H76.5766V21.5H71.8266V14.61ZM82.138 16.28C81.9247 16.1 81.6947 15.9767 81.448 15.91C81.2014 15.8367 80.9614 15.8 80.728 15.8C80.5747 15.8 80.4214 15.8233 80.268 15.87C80.1147 15.91 79.978 15.98 79.858 16.08C79.738 16.18 79.638 16.31 79.558 16.47C79.4847 16.63 79.448 16.8233 79.448 17.05V19.06C79.448 19.2867 79.4847 19.48 79.558 19.64C79.638 19.7933 79.738 19.92 79.858 20.02C79.9847 20.12 80.1214 20.1933 80.268 20.24C80.4214 20.2867 80.5747 20.31 80.728 20.31C80.9614 20.31 81.1947 20.2767 81.428 20.21C81.668 20.1433 81.908 20.0167 82.148 19.83L82.798 20.89C82.5447 21.1033 82.2347 21.27 81.868 21.39C81.5014 21.51 81.1147 21.57 80.708 21.57C80.3814 21.57 80.0614 21.5233 79.748 21.43C79.4347 21.3367 79.1547 21.2 78.908 21.02C78.6614 20.8333 78.4614 20.6033 78.308 20.33C78.1547 20.05 78.078 19.7233 78.078 19.35V16.77C78.078 16.4033 78.1514 16.0833 78.298 15.81C78.4514 15.53 78.648 15.2967 78.888 15.11C79.1347 14.9233 79.4147 14.7833 79.728 14.69C80.0414 14.5967 80.3614 14.55 80.688 14.55C81.088 14.55 81.4714 14.6033 81.838 14.71C82.2114 14.8167 82.5314 14.9867 82.798 15.22L82.138 16.28ZM86.9235 15.85V21.5H85.5535V15.85H83.7235V14.61H88.7435V15.85H86.9235ZM94.0972 17.01L93.4172 18.06C93.3372 18.1867 93.2372 18.3433 93.1172 18.53C93.0039 18.71 92.8772 18.9067 92.7372 19.12C92.5972 19.3333 92.4539 19.5533 92.3072 19.78C92.1605 20.0067 92.0172 20.2267 91.8772 20.44C91.7439 20.6533 91.6172 20.8533 91.4972 21.04C91.3772 21.22 91.2772 21.3733 91.1972 21.5H89.9572V14.61H91.3172V19.14H91.3572L92.7972 16.89L94.2672 14.61H95.5172V21.5H94.1472V17.01H94.0972ZM99.9352 15.85V21.5H98.5652V15.85H96.7352V14.61H101.755V15.85H99.9352ZM102.979 14.61H107.729V15.84H104.349V17.42H107.239V18.65H104.349V20.28H107.729V21.5H102.979V14.61ZM111.29 15.84V17.67C111.29 18.2433 111.257 18.7633 111.19 19.23C111.124 19.6967 111.004 20.1 110.83 20.44C110.657 20.78 110.414 21.0533 110.1 21.26C109.794 21.4667 109.397 21.6033 108.91 21.67L108.61 20.55C108.897 20.4567 109.127 20.3367 109.3 20.19C109.474 20.0433 109.607 19.8567 109.7 19.63C109.8 19.4033 109.864 19.1333 109.89 18.82C109.924 18.5067 109.94 18.1367 109.94 17.71V14.61H114.48V21.5H113.09V15.84H111.29ZM117.595 20.27H119.015C119.322 20.27 119.565 20.1833 119.745 20.01C119.932 19.8367 120.025 19.62 120.025 19.36C120.025 19.0933 119.932 18.8767 119.745 18.71C119.565 18.5433 119.318 18.46 119.005 18.46H117.595V20.27ZM116.225 21.5V14.61H117.595V17.24H119.185C119.525 17.24 119.828 17.2933 120.095 17.4C120.362 17.5067 120.588 17.6533 120.775 17.84C120.962 18.0267 121.105 18.25 121.205 18.51C121.305 18.77 121.355 19.0533 121.355 19.36C121.355 19.6133 121.315 19.8667 121.235 20.12C121.155 20.3733 121.028 20.6033 120.855 20.81C120.688 21.01 120.472 21.1767 120.205 21.31C119.938 21.4367 119.615 21.5 119.235 21.5H116.225ZM125.771 21.5V14.61H130.511V15.84H127.141V21.5H125.771ZM135.353 20.08H132.953L132.503 21.5H131.043L133.463 14.61H134.863L137.263 21.5H135.773L135.353 20.08ZM133.323 18.93H134.983L134.713 18.05L134.173 16.23H134.133L133.603 18.02L133.323 18.93Z" fill="white"/>
<path d="M159 1H10C5.02944 1 1 5.02944 1 10V25C1 29.9706 5.02944 34 10 34H159C163.971 34 168 29.9706 168 25V10C168 5.02944 163.971 1 159 1Z" stroke="url(#paint2_linear_2003_59)" stroke-width="2"/>
</g>
</g>
</g>
<defs>
<linearGradient id="paint0_linear_2003_59" x1="169" y1="35" x2="1.12391e-06" y2="-5.4269e-06" gradientUnits="userSpaceOnUse">
<stop stop-color="#45572E"/>
<stop offset="0.501962" stop-color="#A8DF00"/>
<stop offset="1" stop-color="#45572E"/>
</linearGradient>
<linearGradient id="paint1_linear_2003_59" x1="94.2335" y1="19.0034" x2="93.5358" y2="-9.08057" gradientUnits="userSpaceOnUse">
<stop stop-color="white"/>
<stop offset="1" stop-color="#999999" stop-opacity="0"/>
</linearGradient>
<linearGradient id="paint2_linear_2003_59" x1="84" y1="35" x2="84" y2="-4.23554e-06" gradientUnits="userSpaceOnUse">
<stop stop-color="#C2FF06"/>
<stop offset="1" stop-color="#FAFB5F" stop-opacity="0"/>
</linearGradient>
<clipPath id="clip0_2003_59">
<rect width="169" height="35" fill="white"/>
</clipPath>
</defs>
</svg>
