<svg width="169" height="35" viewBox="0 0 169 35" fill="none" xmlns="http://www.w3.org/2000/svg">
<g clip-path="url(#clip0_2035_22)">
<mask id="mask0_2035_22" style="mask-type:luminance" maskUnits="userSpaceOnUse" x="0" y="0" width="169" height="35">
<path d="M169 0H0V35H169V0Z" fill="white"/>
</mask>
<g mask="url(#mask0_2035_22)">
<mask id="mask1_2035_22" style="mask-type:luminance" maskUnits="userSpaceOnUse" x="0" y="0" width="169" height="35">
<path d="M169 0H0V35H169V0Z" fill="white"/>
</mask>
<g mask="url(#mask1_2035_22)">
<path d="M159 0H10C4.47715 0 0 4.47715 0 10V25C0 30.5228 4.47715 35 10 35H159C164.523 35 169 30.5228 169 25V10C169 4.47715 164.523 0 159 0Z" fill="url(#paint0_linear_2035_22)"/>
<mask id="mask2_2035_22" style="mask-type:alpha" maskUnits="userSpaceOnUse" x="0" y="0" width="169" height="35">
<path d="M159 0H10C4.47715 0 0 4.47715 0 10V25C0 30.5228 4.47715 35 10 35H159C164.523 35 169 30.5228 169 25V10C169 4.47715 164.523 0 159 0Z" fill="#2A2A2A"/>
</mask>
<g mask="url(#mask2_2035_22)">
<path d="M-23.4211 -77.6775C80.4929 -158.518 99.8185 -279.576 96.4919 -330C48.4798 -180.255 -86.9996 -103.77 -148.738 -84.2459C49.692 106.215 255.27 -10.7057 333.256 -92.9738C227.758 -104.311 143.954 -243.042 115.239 -310.991C121.754 -195.636 45.6125 -111.052 6.72754 -83.1796C74.3656 -92.7148 119.672 -141.149 133.87 -164.175C170.789 -111.737 221.531 -79.1352 242.286 -69.3891C130.82 -8.47409 18.7037 -49.5335 -23.4211 -77.6775Z" fill="url(#paint1_linear_2035_22)" fill-opacity="0.3" style="mix-blend-mode:overlay"/>
</g>
<path d="M159 1H10C5.02944 1 1 5.02944 1 10V25C1 29.9706 5.02944 34 10 34H159C163.971 34 168 29.9706 168 25V10C168 5.02944 163.971 1 159 1Z" stroke="url(#paint2_linear_2035_22)" stroke-width="2"/>
</g>
<mask id="mask3_2035_22" style="mask-type:luminance" maskUnits="userSpaceOnUse" x="58" y="12" width="12" height="12">
<path d="M70 12H58V24H70V12Z" fill="white"/>
</mask>
<g mask="url(#mask3_2035_22)">
<path d="M66.0738 19.41C65.8872 20.2476 65.5115 21.0264 64.981 21.6893C64.8272 21.8814 64.5163 21.7891 64.4858 21.5449L64.3563 20.5095L64.6152 19.9918C64.6599 19.9023 64.5948 19.797 64.4948 19.797H63.5053C63.4053 19.797 63.3402 19.9023 63.3849 19.9918L63.6438 20.5095L63.5144 21.5448C63.4839 21.789 63.173 21.8814 63.0192 21.6892C62.4887 21.0263 62.1131 20.2476 61.9265 19.41C61.8951 19.269 61.759 19.1777 61.6158 19.1959C59.6588 19.4451 58.3 20.2316 58.3 22.647C58.3 23.0405 58.619 23.3595 59.0125 23.3595H68.9875C69.3811 23.3595 69.7 23.0405 69.7 22.647C69.7 20.2316 68.3413 19.4451 66.3845 19.1959C66.2412 19.1777 66.1052 19.269 66.0738 19.41Z" fill="white"/>
<path d="M64 12.6404C62.5764 12.6404 61.4224 13.7944 61.4224 15.218C61.4224 17.5008 62.5764 19.0845 64 19.0845C65.4237 19.0845 66.5777 17.5008 66.5777 15.218C66.5777 13.7944 65.4237 12.6404 64 12.6404Z" fill="white"/>
</g>
<path d="M78.64 15.84V17.67C78.64 18.2433 78.6067 18.7633 78.54 19.23C78.4733 19.6967 78.3533 20.1 78.18 20.44C78.0067 20.78 77.7633 21.0533 77.45 21.26C77.1433 21.4667 76.7467 21.6033 76.26 21.67L75.96 20.55C76.2467 20.4567 76.4767 20.3367 76.65 20.19C76.8233 20.0433 76.9567 19.8567 77.05 19.63C77.15 19.4033 77.2133 19.1333 77.24 18.82C77.2733 18.5067 77.29 18.1367 77.29 17.71V14.61H81.83V21.5H80.44V15.84H78.64ZM87.7046 17.01L87.0246 18.06C86.9446 18.1867 86.8446 18.3433 86.7246 18.53C86.6113 18.71 86.4846 18.9067 86.3446 19.12C86.2046 19.3333 86.0613 19.5533 85.9146 19.78C85.7679 20.0067 85.6246 20.2267 85.4846 20.44C85.3513 20.6533 85.2246 20.8533 85.1046 21.04C84.9846 21.22 84.8846 21.3733 84.8046 21.5H83.5646V14.61H84.9246V19.14H84.9646L86.4046 16.89L87.8746 14.61H89.1246V21.5H87.7546V17.01H87.7046ZM90.8327 20.29C90.986 20.1767 91.116 20.0433 91.2227 19.89C91.3293 19.73 91.416 19.5367 91.4827 19.31C91.556 19.0833 91.6127 18.82 91.6527 18.52C91.6927 18.2133 91.7227 17.8533 91.7427 17.44L91.8727 14.61H96.5327C96.5327 15.5633 96.5327 16.5133 96.5327 17.46C96.5393 18.4 96.5427 19.3467 96.5427 20.3H97.1427V23.04H95.8927V21.5H91.5727V23.04H90.3227V20.29H90.8327ZM93.1027 15.82L93.0227 17.47C93.0093 17.7633 92.9927 18.0433 92.9727 18.31C92.9527 18.57 92.9227 18.82 92.8827 19.06C92.8427 19.2933 92.786 19.5167 92.7127 19.73C92.6393 19.9367 92.5393 20.1267 92.4127 20.3H95.1827V15.82H93.1027ZM98.6078 14.61H103.358V15.84H99.9778V17.42H102.868V18.65H99.9778V20.28H103.358V21.5H98.6078V14.61ZM106.229 17.67H107.629C107.943 17.67 108.179 17.5833 108.339 17.41C108.499 17.2367 108.579 17.02 108.579 16.76C108.579 16.4933 108.496 16.2733 108.329 16.1C108.169 15.9267 107.936 15.84 107.629 15.84H106.229V17.67ZM107.939 14.61C108.279 14.61 108.573 14.6767 108.819 14.81C109.066 14.9367 109.269 15.1033 109.429 15.31C109.596 15.5167 109.716 15.75 109.789 16.01C109.869 16.2633 109.909 16.5133 109.909 16.76C109.909 17.0133 109.863 17.2667 109.769 17.52C109.683 17.7733 109.553 18.0033 109.379 18.21C109.213 18.4167 109.003 18.5867 108.749 18.72C108.503 18.8467 108.219 18.91 107.899 18.91H106.229V21.5H104.859V14.61H107.939Z" fill="white"/>
</g>
</g>
<defs>
<linearGradient id="paint0_linear_2035_22" x1="169" y1="35" x2="1.12391e-06" y2="-5.4269e-06" gradientUnits="userSpaceOnUse">
<stop stop-color="#24131B"/>
<stop offset="0.501962" stop-color="#7D3658"/>
<stop offset="1" stop-color="#4A2838"/>
</linearGradient>
<linearGradient id="paint1_linear_2035_22" x1="94.2335" y1="19.0034" x2="93.5358" y2="-9.08058" gradientUnits="userSpaceOnUse">
<stop stop-color="white"/>
<stop offset="1" stop-color="#999999" stop-opacity="0"/>
</linearGradient>
<linearGradient id="paint2_linear_2035_22" x1="84" y1="35" x2="84" y2="-4.23554e-06" gradientUnits="userSpaceOnUse">
<stop stop-color="#7D3658"/>
<stop offset="1" stop-color="#94204E" stop-opacity="0"/>
</linearGradient>
<clipPath id="clip0_2035_22">
<rect width="169" height="35" fill="white"/>
</clipPath>
</defs>
</svg>
