<svg width="169" height="35" viewBox="0 0 169 35" fill="none" xmlns="http://www.w3.org/2000/svg">
<g clip-path="url(#clip0_2003_120)">
<mask id="mask0_2003_120" style="mask-type:luminance" maskUnits="userSpaceOnUse" x="0" y="0" width="169" height="35">
<path d="M169 0H0V35H169V0Z" fill="white"/>
</mask>
<g mask="url(#mask0_2003_120)">
<path d="M159 0H10C4.47715 0 0 4.47715 0 10V25C0 30.5228 4.47715 35 10 35H159C164.523 35 169 30.5228 169 25V10C169 4.47715 164.523 0 159 0Z" fill="url(#paint0_linear_2003_120)"/>
<mask id="mask1_2003_120" style="mask-type:alpha" maskUnits="userSpaceOnUse" x="0" y="0" width="169" height="35">
<path d="M159 0H10C4.47715 0 0 4.47715 0 10V25C0 30.5228 4.47715 35 10 35H159C164.523 35 169 30.5228 169 25V10C169 4.47715 164.523 0 159 0Z" fill="#2A2A2A"/>
</mask>
<g mask="url(#mask1_2003_120)">
<path d="M-23.421 -77.6775C80.493 -158.518 99.8186 -279.576 96.492 -330C48.4799 -180.255 -86.9995 -103.77 -148.738 -84.2459C49.6921 106.215 255.271 -10.7057 333.256 -92.9738C227.759 -104.311 143.954 -243.042 115.239 -310.991C121.754 -195.636 45.6126 -111.052 6.72766 -83.1796C74.3658 -92.7148 119.672 -141.149 133.87 -164.175C170.789 -111.737 221.531 -79.1352 242.287 -69.3891C130.82 -8.47409 18.7039 -49.5335 -23.421 -77.6775Z" fill="url(#paint1_linear_2003_120)" fill-opacity="0.3" style="mix-blend-mode:overlay"/>
</g>
<mask id="mask2_2003_120" style="mask-type:luminance" maskUnits="userSpaceOnUse" x="20" y="12" width="12" height="12">
<path d="M32 12H20V24H32V12Z" fill="white"/>
</mask>
<g mask="url(#mask2_2003_120)">
<path d="M29.2905 13.07L26.158 12.0255C26.0554 11.9913 25.9446 11.9913 25.842 12.0255L22.7095 13.07C22.2115 13.2354 21.7782 13.5536 21.4713 13.9794C21.1644 14.4051 20.9995 14.9167 21 15.4415V18C21 21.7815 25.6 23.87 25.797 23.957C25.8609 23.9854 25.9301 24.0001 26 24.0001C26.0699 24.0001 26.1391 23.9854 26.203 23.957C26.4 23.87 31 21.7815 31 18V15.4415C31.0005 14.9167 30.8356 14.4051 30.5287 13.9794C30.2218 13.5536 29.7885 13.2354 29.2905 13.07ZM28.359 16.8585L26.223 18.9945C26.1356 19.0825 26.0316 19.1522 25.917 19.1997C25.8024 19.2472 25.6795 19.2714 25.5555 19.271H25.539C25.4124 19.2691 25.2876 19.2415 25.172 19.1899C25.0564 19.1383 24.9525 19.0639 24.8665 18.971L23.7135 17.771C23.6636 17.7247 23.6236 17.6686 23.5961 17.6063C23.5686 17.544 23.5542 17.4767 23.5536 17.4086C23.553 17.3405 23.5664 17.273 23.5929 17.2102C23.6193 17.1474 23.6583 17.0907 23.7075 17.0436C23.7566 16.9964 23.8149 16.9598 23.8787 16.936C23.9426 16.9122 24.0106 16.9017 24.0786 16.9051C24.1466 16.9085 24.2132 16.9258 24.2744 16.9558C24.3355 16.9859 24.3898 17.0282 24.434 17.08L25.556 18.25L27.65 16.15C27.7443 16.0589 27.8706 16.0085 28.0017 16.0097C28.1328 16.0108 28.2582 16.0634 28.3509 16.1561C28.4436 16.2488 28.4962 16.3742 28.4973 16.5053C28.4985 16.6364 28.4481 16.7627 28.357 16.857L28.359 16.8585Z" fill="white"/>
</g>
<path d="M43.85 17.8L43.21 19.07L42.43 20.55H41.44L40.67 19.1L40 17.8H39.96V21.5H38.6V14.61H39.86L41.09 17.04L41.92 18.74H41.98L42.82 17L44 14.61H45.26V21.5H43.89V17.8H43.85ZM48.9916 15.84V17.67C48.9916 18.2433 48.9582 18.7633 48.8916 19.23C48.8249 19.6967 48.7049 20.1 48.5316 20.44C48.3582 20.78 48.1149 21.0533 47.8016 21.26C47.4949 21.4667 47.0982 21.6033 46.6116 21.67L46.3116 20.55C46.5982 20.4567 46.8282 20.3367 47.0016 20.19C47.1749 20.0433 47.3082 19.8567 47.4016 19.63C47.5016 19.4033 47.5649 19.1333 47.5916 18.82C47.6249 18.5067 47.6416 18.1367 47.6416 17.71V14.61H52.1816V21.5H50.7916V15.84H48.9916ZM54.7862 21.57C54.5595 21.57 54.3695 21.49 54.2162 21.33C54.0695 21.17 53.9962 20.9767 53.9962 20.75C53.9962 20.5367 54.0695 20.3567 54.2162 20.21C54.3695 20.0567 54.5562 19.98 54.7762 19.98C55.0028 19.98 55.1895 20.0567 55.3362 20.21C55.4895 20.3567 55.5662 20.5367 55.5662 20.75C55.5662 20.97 55.4962 21.1633 55.3562 21.33C55.2162 21.49 55.0262 21.57 54.7862 21.57ZM64.1261 20.08H61.7261L61.2761 21.5H59.8161L62.2361 14.61H63.6361L66.0361 21.5H64.5461L64.1261 20.08ZM62.0961 18.93H63.7561L63.4861 18.05L62.9461 16.23H62.9061L62.3761 18.02L62.0961 18.93ZM67.233 20.29C67.3864 20.1767 67.5164 20.0433 67.623 19.89C67.7297 19.73 67.8164 19.5367 67.883 19.31C67.9564 19.0833 68.013 18.82 68.053 18.52C68.093 18.2133 68.123 17.8533 68.143 17.44L68.273 14.61H72.933C72.933 15.5633 72.933 16.5133 72.933 17.46C72.9397 18.4 72.943 19.3467 72.943 20.3H73.543V23.04H72.293V21.5H67.973V23.04H66.723V20.29H67.233ZM69.503 15.82L69.423 17.47C69.4097 17.7633 69.393 18.0433 69.373 18.31C69.353 18.57 69.323 18.82 69.283 19.06C69.243 19.2933 69.1864 19.5167 69.113 19.73C69.0397 19.9367 68.9397 20.1267 68.813 20.3H71.583V15.82H69.503ZM80.2582 17.8L79.6182 19.07L78.8382 20.55H77.8482L77.0782 19.1L76.4082 17.8H76.3682V21.5H75.0082V14.61H76.2682L77.4982 17.04L78.3282 18.74H78.3882L79.2282 17L80.4082 14.61H81.6682V21.5H80.2982V17.8H80.2582ZM87.4898 17.01L86.8098 18.06C86.7298 18.1867 86.6298 18.3433 86.5098 18.53C86.3964 18.71 86.2698 18.9067 86.1298 19.12C85.9898 19.3333 85.8464 19.5533 85.6998 19.78C85.5531 20.0067 85.4098 20.2267 85.2698 20.44C85.1364 20.6533 85.0098 20.8533 84.8898 21.04C84.7698 21.22 84.6698 21.3733 84.5898 21.5H83.3498V14.61H84.7098V19.14H84.7498L86.1898 16.89L87.6598 14.61H88.9098V21.5H87.5398V17.01H87.4898ZM94.4978 21.5V18.62H91.9578V21.5H90.5878V14.61H91.9578V17.38H94.4978V14.61H95.8878V21.5H94.4978ZM101.703 17.01L101.023 18.06C100.943 18.1867 100.843 18.3433 100.723 18.53C100.609 18.71 100.483 18.9067 100.343 19.12C100.203 19.3333 100.059 19.5533 99.9127 19.78C99.766 20.0067 99.6227 20.2267 99.4827 20.44C99.3493 20.6533 99.2227 20.8533 99.1027 21.04C98.9827 21.22 98.8827 21.3733 98.8027 21.5H97.5627V14.61H98.9227V19.14H98.9627L100.403 16.89L101.873 14.61H103.123V21.5H101.753V17.01H101.703ZM108.861 16.28C108.647 16.1 108.417 15.9767 108.171 15.91C107.924 15.8367 107.684 15.8 107.451 15.8C107.297 15.8 107.144 15.8233 106.991 15.87C106.837 15.91 106.701 15.98 106.581 16.08C106.461 16.18 106.361 16.31 106.281 16.47C106.207 16.63 106.171 16.8233 106.171 17.05V19.06C106.171 19.2867 106.207 19.48 106.281 19.64C106.361 19.7933 106.461 19.92 106.581 20.02C106.707 20.12 106.844 20.1933 106.991 20.24C107.144 20.2867 107.297 20.31 107.451 20.31C107.684 20.31 107.917 20.2767 108.151 20.21C108.391 20.1433 108.631 20.0167 108.871 19.83L109.521 20.89C109.267 21.1033 108.957 21.27 108.591 21.39C108.224 21.51 107.837 21.57 107.431 21.57C107.104 21.57 106.784 21.5233 106.471 21.43C106.157 21.3367 105.877 21.2 105.631 21.02C105.384 20.8333 105.184 20.6033 105.031 20.33C104.877 20.05 104.801 19.7233 104.801 19.35V16.77C104.801 16.4033 104.874 16.0833 105.021 15.81C105.174 15.53 105.371 15.2967 105.611 15.11C105.857 14.9233 106.137 14.7833 106.451 14.69C106.764 14.5967 107.084 14.55 107.411 14.55C107.811 14.55 108.194 14.6033 108.561 14.71C108.934 14.8167 109.254 14.9867 109.521 15.22L108.861 16.28ZM113.646 15.85V21.5H112.276V15.85H110.446V14.61H115.466V15.85H113.646ZM118.04 17.67H119.44C119.753 17.67 119.99 17.5833 120.15 17.41C120.31 17.2367 120.39 17.02 120.39 16.76C120.39 16.4933 120.307 16.2733 120.14 16.1C119.98 15.9267 119.747 15.84 119.44 15.84H118.04V17.67ZM119.75 14.61C120.09 14.61 120.383 14.6767 120.63 14.81C120.877 14.9367 121.08 15.1033 121.24 15.31C121.407 15.5167 121.527 15.75 121.6 16.01C121.68 16.2633 121.72 16.5133 121.72 16.76C121.72 17.0133 121.673 17.2667 121.58 17.52C121.493 17.7733 121.363 18.0033 121.19 18.21C121.023 18.4167 120.813 18.5867 120.56 18.72C120.313 18.8467 120.03 18.91 119.71 18.91H118.04V21.5H116.67V14.61H119.75ZM126.732 20.08H124.332L123.882 21.5H122.422L124.842 14.61H126.242L128.642 21.5H127.152L126.732 20.08ZM124.702 18.93H126.362L126.092 18.05L125.552 16.23H125.512L124.982 18.02L124.702 18.93ZM132.549 15.85V21.5H131.179V15.85H129.349V14.61H134.369V15.85H132.549ZM140.832 19.3C140.832 19.6733 140.762 20 140.622 20.28C140.482 20.56 140.292 20.7967 140.052 20.99C139.812 21.1833 139.529 21.33 139.202 21.43C138.882 21.5233 138.542 21.57 138.182 21.57C137.822 21.57 137.479 21.5233 137.152 21.43C136.832 21.33 136.552 21.1833 136.312 20.99C136.072 20.7967 135.882 20.56 135.742 20.28C135.602 20 135.532 19.6733 135.532 19.3V16.77C135.532 16.4033 135.606 16.08 135.752 15.8C135.899 15.52 136.096 15.2867 136.342 15.1C136.589 14.9133 136.872 14.7733 137.192 14.68C137.512 14.5867 137.842 14.54 138.182 14.54C138.522 14.54 138.852 14.59 139.172 14.69C139.492 14.79 139.776 14.9367 140.022 15.13C140.269 15.3167 140.466 15.5533 140.612 15.84C140.759 16.12 140.832 16.4433 140.832 16.81V19.3ZM139.452 17.05C139.452 16.8233 139.416 16.6333 139.342 16.48C139.269 16.32 139.172 16.19 139.052 16.09C138.932 15.99 138.796 15.9167 138.642 15.87C138.496 15.8233 138.342 15.8 138.182 15.8C138.022 15.8 137.866 15.8233 137.712 15.87C137.559 15.9167 137.422 15.99 137.302 16.09C137.182 16.19 137.086 16.32 137.012 16.48C136.939 16.6333 136.902 16.8233 136.902 17.05V19.06C136.902 19.2867 136.939 19.48 137.012 19.64C137.086 19.8 137.182 19.93 137.302 20.03C137.422 20.13 137.559 20.2033 137.712 20.25C137.866 20.29 138.022 20.31 138.182 20.31C138.342 20.31 138.496 20.29 138.642 20.25C138.796 20.2033 138.932 20.13 139.052 20.03C139.172 19.93 139.269 19.8 139.342 19.64C139.416 19.48 139.452 19.2867 139.452 19.06V17.05ZM143.819 17.67H145.219C145.532 17.67 145.769 17.5833 145.929 17.41C146.089 17.2367 146.169 17.02 146.169 16.76C146.169 16.4933 146.086 16.2733 145.919 16.1C145.759 15.9267 145.526 15.84 145.219 15.84H143.819V17.67ZM145.529 14.61C145.869 14.61 146.162 14.6767 146.409 14.81C146.656 14.9367 146.859 15.1033 147.019 15.31C147.186 15.5167 147.306 15.75 147.379 16.01C147.459 16.2633 147.499 16.5133 147.499 16.76C147.499 17.0133 147.452 17.2667 147.359 17.52C147.272 17.7733 147.142 18.0033 146.969 18.21C146.802 18.4167 146.592 18.5867 146.339 18.72C146.092 18.8467 145.809 18.91 145.489 18.91H143.819V21.5H142.449V14.61H145.529Z" fill="white"/>
<path d="M159 1H10C5.02944 1 1 5.02944 1 10V25C1 29.9706 5.02944 34 10 34H159C163.971 34 168 29.9706 168 25V10C168 5.02944 163.971 1 159 1Z" stroke="url(#paint2_linear_2003_120)" stroke-width="2"/>
</g>
</g>
<defs>
<linearGradient id="paint0_linear_2003_120" x1="169" y1="35" x2="1.12391e-06" y2="-5.4269e-06" gradientUnits="userSpaceOnUse">
<stop stop-color="#AE8120"/>
<stop offset="0.501962" stop-color="#D2AA29"/>
<stop offset="1" stop-color="#AE8120"/>
</linearGradient>
<linearGradient id="paint1_linear_2003_120" x1="94.2336" y1="19.0034" x2="93.536" y2="-9.08057" gradientUnits="userSpaceOnUse">
<stop stop-color="white"/>
<stop offset="1" stop-color="#999999" stop-opacity="0"/>
</linearGradient>
<linearGradient id="paint2_linear_2003_120" x1="84" y1="35" x2="84" y2="-4.23554e-06" gradientUnits="userSpaceOnUse">
<stop stop-color="#FFD487"/>
<stop offset="1" stop-color="#555555" stop-opacity="0"/>
</linearGradient>
<clipPath id="clip0_2003_120">
<rect width="169" height="35" fill="white"/>
</clipPath>
</defs>
</svg>
