<svg width="169" height="35" viewBox="0 0 169 35" fill="none" xmlns="http://www.w3.org/2000/svg">
<g clip-path="url(#clip0_2034_2)">
<mask id="mask0_2034_2" style="mask-type:luminance" maskUnits="userSpaceOnUse" x="0" y="0" width="169" height="35">
<path d="M169 0H0V35H169V0Z" fill="white"/>
</mask>
<g mask="url(#mask0_2034_2)">
<path d="M159 0H10C4.47715 0 0 4.47715 0 10V25C0 30.5228 4.47715 35 10 35H159C164.523 35 169 30.5228 169 25V10C169 4.47715 164.523 0 159 0Z" fill="url(#paint0_linear_2034_2)"/>
<mask id="mask1_2034_2" style="mask-type:alpha" maskUnits="userSpaceOnUse" x="0" y="0" width="169" height="35">
<path d="M159 0H10C4.47715 0 0 4.47715 0 10V25C0 30.5228 4.47715 35 10 35H159C164.523 35 169 30.5228 169 25V10C169 4.47715 164.523 0 159 0Z" fill="#2A2A2A"/>
</mask>
<g mask="url(#mask1_2034_2)">
<path d="M-23.4211 -77.6775C80.4929 -158.518 99.8185 -279.576 96.4919 -330C48.4798 -180.255 -86.9996 -103.77 -148.738 -84.2459C49.692 106.215 255.27 -10.7057 333.256 -92.9738C227.758 -104.311 143.954 -243.042 115.239 -310.991C121.754 -195.636 45.6125 -111.052 6.72755 -83.1796C74.3656 -92.7148 119.672 -141.149 133.87 -164.175C170.789 -111.737 221.531 -79.1352 242.286 -69.3891C130.82 -8.47407 18.7037 -49.5335 -23.4211 -77.6775Z" fill="url(#paint1_linear_2034_2)" fill-opacity="0.3" style="mix-blend-mode:overlay"/>
</g>
<mask id="mask2_2034_2" style="mask-type:luminance" maskUnits="userSpaceOnUse" x="20" y="12" width="12" height="12">
<path d="M32 12H20V24H32V12Z" fill="white"/>
</mask>
<g mask="url(#mask2_2034_2)">
<path d="M29.2905 13.07L26.158 12.0255C26.0554 11.9913 25.9446 11.9913 25.842 12.0255L22.7095 13.07C22.2115 13.2354 21.7782 13.5536 21.4713 13.9794C21.1644 14.4051 20.9995 14.9167 21 15.4415V18C21 21.7815 25.6 23.87 25.797 23.957C25.8609 23.9854 25.9301 24.0001 26 24.0001C26.0699 24.0001 26.1391 23.9854 26.203 23.957C26.4 23.87 31 21.7815 31 18V15.4415C31.0005 14.9167 30.8356 14.4051 30.5287 13.9794C30.2218 13.5536 29.7885 13.2354 29.2905 13.07ZM28.359 16.8585L26.223 18.9945C26.1356 19.0825 26.0316 19.1522 25.917 19.1997C25.8024 19.2472 25.6795 19.2714 25.5555 19.271H25.539C25.4124 19.2691 25.2876 19.2415 25.172 19.1899C25.0564 19.1383 24.9525 19.0639 24.8665 18.971L23.7135 17.771C23.6636 17.7247 23.6236 17.6686 23.5961 17.6063C23.5686 17.544 23.5542 17.4767 23.5536 17.4086C23.553 17.3405 23.5664 17.273 23.5929 17.2102C23.6193 17.1474 23.6583 17.0907 23.7075 17.0436C23.7566 16.9964 23.8149 16.9598 23.8787 16.936C23.9426 16.9122 24.0106 16.9017 24.0786 16.9051C24.1466 16.9085 24.2132 16.9258 24.2744 16.9558C24.3355 16.9859 24.3898 17.0282 24.434 17.08L25.556 18.25L27.65 16.15C27.7443 16.0589 27.8706 16.0085 28.0017 16.0097C28.1328 16.0108 28.2582 16.0634 28.3509 16.1561C28.4436 16.2488 28.4962 16.3742 28.4973 16.5053C28.4985 16.6364 28.4481 16.7627 28.357 16.857L28.359 16.8585Z" fill="white"/>
</g>
<path d="M42.64 16.28C42.4267 16.1 42.1967 15.9767 41.95 15.91C41.7033 15.8367 41.4633 15.8 41.23 15.8C41.0767 15.8 40.9233 15.8233 40.77 15.87C40.6167 15.91 40.48 15.98 40.36 16.08C40.24 16.18 40.14 16.31 40.06 16.47C39.9867 16.63 39.95 16.8233 39.95 17.05V19.06C39.95 19.2867 39.9867 19.48 40.06 19.64C40.14 19.7933 40.24 19.92 40.36 20.02C40.4867 20.12 40.6233 20.1933 40.77 20.24C40.9233 20.2867 41.0767 20.31 41.23 20.31C41.4633 20.31 41.6967 20.2767 41.93 20.21C42.17 20.1433 42.41 20.0167 42.65 19.83L43.3 20.89C43.0467 21.1033 42.7367 21.27 42.37 21.39C42.0033 21.51 41.6167 21.57 41.21 21.57C40.8833 21.57 40.5633 21.5233 40.25 21.43C39.9367 21.3367 39.6567 21.2 39.41 21.02C39.1633 20.8333 38.9633 20.6033 38.81 20.33C38.6567 20.05 38.58 19.7233 38.58 19.35V16.77C38.58 16.4033 38.6533 16.0833 38.8 15.81C38.9533 15.53 39.15 15.2967 39.39 15.11C39.6367 14.9233 39.9167 14.7833 40.23 14.69C40.5433 14.5967 40.8633 14.55 41.19 14.55C41.59 14.55 41.9733 14.6033 42.34 14.71C42.7133 14.8167 43.0333 14.9867 43.3 15.22L42.64 16.28ZM48.0955 21.5V15.84H45.5555V21.5H44.1855V14.61H49.4855V21.5H48.0955ZM50.6703 14.61H55.4203V15.84H52.0403V17.42H54.9303V18.65H52.0403V20.28H55.4203V21.5H50.6703V14.61ZM61.7218 14.61V20.3H62.3218V23.05H61.0718V21.5H56.4218V14.61H57.7918V20.28H60.3318V14.61H61.7218ZM63.9913 21.57C63.7646 21.57 63.5746 21.49 63.4213 21.33C63.2746 21.17 63.2013 20.9767 63.2013 20.75C63.2013 20.5367 63.2746 20.3567 63.4213 20.21C63.5746 20.0567 63.7613 19.98 63.9813 19.98C64.2079 19.98 64.3946 20.0567 64.5413 20.21C64.6946 20.3567 64.7713 20.5367 64.7713 20.75C64.7713 20.97 64.7013 21.1633 64.5613 21.33C64.4213 21.49 64.2313 21.57 63.9913 21.57ZM72.3312 20.08H69.9312L69.4812 21.5H68.0212L70.4412 14.61H71.8412L74.2412 21.5H72.7512L72.3312 20.08ZM70.3012 18.93H71.9612L71.6912 18.05L71.1512 16.23H71.1112L70.5812 18.02L70.3012 18.93ZM74.9381 20.29C75.0915 20.1767 75.2215 20.0433 75.3281 19.89C75.4348 19.73 75.5215 19.5367 75.5881 19.31C75.6615 19.0833 75.7181 18.82 75.7581 18.52C75.7981 18.2133 75.8281 17.8533 75.8481 17.44L75.9781 14.61H80.6381C80.6381 15.5633 80.6381 16.5133 80.6381 17.46C80.6448 18.4 80.6481 19.3467 80.6481 20.3H81.2481V23.04H79.9981V21.5H75.6781V23.04H74.4281V20.29H74.9381ZM77.2081 15.82L77.1281 17.47C77.1148 17.7633 77.0981 18.0433 77.0781 18.31C77.0581 18.57 77.0281 18.82 76.9881 19.06C76.9481 19.2933 76.8915 19.5167 76.8181 19.73C76.7448 19.9367 76.6448 20.1267 76.5181 20.3H79.2881V15.82H77.2081ZM87.4633 17.8L86.8233 19.07L86.0433 20.55H85.0533L84.2833 19.1L83.6133 17.8H83.5733V21.5H82.2133V14.61H83.4733L84.7033 17.04L85.5333 18.74H85.5933L86.4333 17L87.6133 14.61H88.8733V21.5H87.5033V17.8H87.4633ZM94.1948 17.01L93.5148 18.06C93.4348 18.1867 93.3348 18.3433 93.2148 18.53C93.1015 18.71 92.9748 18.9067 92.8348 19.12C92.6948 19.3333 92.5515 19.5533 92.4048 19.78C92.2582 20.0067 92.1148 20.2267 91.9748 20.44C91.8415 20.6533 91.7148 20.8533 91.5948 21.04C91.4748 21.22 91.3748 21.3733 91.2948 21.5H90.0548V14.61H91.4148V19.14H91.4548L92.8948 16.89L94.3648 14.61H95.6148V21.5H94.2448V17.01H94.1948ZM100.703 21.5V18.62H98.1629V21.5H96.7929V14.61H98.1629V17.38H100.703V14.61H102.093V21.5H100.703ZM107.408 17.01L106.728 18.06C106.648 18.1867 106.548 18.3433 106.428 18.53C106.314 18.71 106.188 18.9067 106.048 19.12C105.908 19.3333 105.764 19.5533 105.618 19.78C105.471 20.0067 105.328 20.2267 105.188 20.44C105.054 20.6533 104.928 20.8533 104.808 21.04C104.688 21.22 104.588 21.3733 104.508 21.5H103.268V14.61H104.628V19.14H104.668L106.108 16.89L107.578 14.61H108.828V21.5H107.458V17.01H107.408ZM114.066 16.28C113.852 16.1 113.622 15.9767 113.376 15.91C113.129 15.8367 112.889 15.8 112.656 15.8C112.502 15.8 112.349 15.8233 112.196 15.87C112.042 15.91 111.906 15.98 111.786 16.08C111.666 16.18 111.566 16.31 111.486 16.47C111.412 16.63 111.376 16.8233 111.376 17.05V19.06C111.376 19.2867 111.412 19.48 111.486 19.64C111.566 19.7933 111.666 19.92 111.786 20.02C111.912 20.12 112.049 20.1933 112.196 20.24C112.349 20.2867 112.502 20.31 112.656 20.31C112.889 20.31 113.122 20.2767 113.356 20.21C113.596 20.1433 113.836 20.0167 114.076 19.83L114.726 20.89C114.472 21.1033 114.162 21.27 113.796 21.39C113.429 21.51 113.042 21.57 112.636 21.57C112.309 21.57 111.989 21.5233 111.676 21.43C111.362 21.3367 111.082 21.2 110.836 21.02C110.589 20.8333 110.389 20.6033 110.236 20.33C110.082 20.05 110.006 19.7233 110.006 19.35V16.77C110.006 16.4033 110.079 16.0833 110.226 15.81C110.379 15.53 110.576 15.2967 110.816 15.11C111.062 14.9233 111.342 14.7833 111.656 14.69C111.969 14.5967 112.289 14.55 112.616 14.55C113.016 14.55 113.399 14.6033 113.766 14.71C114.139 14.8167 114.459 14.9867 114.726 15.22L114.066 16.28ZM118.351 15.85V21.5H116.981V15.85H115.151V14.61H120.171V15.85H118.351ZM122.245 17.67H123.645C123.958 17.67 124.195 17.5833 124.355 17.41C124.515 17.2367 124.595 17.02 124.595 16.76C124.595 16.4933 124.512 16.2733 124.345 16.1C124.185 15.9267 123.952 15.84 123.645 15.84H122.245V17.67ZM123.955 14.61C124.295 14.61 124.588 14.6767 124.835 14.81C125.082 14.9367 125.285 15.1033 125.445 15.31C125.612 15.5167 125.732 15.75 125.805 16.01C125.885 16.2633 125.925 16.5133 125.925 16.76C125.925 17.0133 125.878 17.2667 125.785 17.52C125.698 17.7733 125.568 18.0033 125.395 18.21C125.228 18.4167 125.018 18.5867 124.765 18.72C124.518 18.8467 124.235 18.91 123.915 18.91H122.245V21.5H120.875V14.61H123.955ZM130.437 20.08H128.037L127.587 21.5H126.127L128.547 14.61H129.947L132.347 21.5H130.857L130.437 20.08ZM128.407 18.93H130.067L129.797 18.05L129.257 16.23H129.217L128.687 18.02L128.407 18.93ZM135.754 15.85V21.5H134.384V15.85H132.554V14.61H137.574V15.85H135.754ZM143.537 19.3C143.537 19.6733 143.467 20 143.327 20.28C143.187 20.56 142.997 20.7967 142.757 20.99C142.517 21.1833 142.234 21.33 141.907 21.43C141.587 21.5233 141.247 21.57 140.887 21.57C140.527 21.57 140.184 21.5233 139.857 21.43C139.537 21.33 139.257 21.1833 139.017 20.99C138.777 20.7967 138.587 20.56 138.447 20.28C138.307 20 138.237 19.6733 138.237 19.3V16.77C138.237 16.4033 138.311 16.08 138.457 15.8C138.604 15.52 138.801 15.2867 139.047 15.1C139.294 14.9133 139.577 14.7733 139.897 14.68C140.217 14.5867 140.547 14.54 140.887 14.54C141.227 14.54 141.557 14.59 141.877 14.69C142.197 14.79 142.481 14.9367 142.727 15.13C142.974 15.3167 143.171 15.5533 143.317 15.84C143.464 16.12 143.537 16.4433 143.537 16.81V19.3ZM142.157 17.05C142.157 16.8233 142.121 16.6333 142.047 16.48C141.974 16.32 141.877 16.19 141.757 16.09C141.637 15.99 141.501 15.9167 141.347 15.87C141.201 15.8233 141.047 15.8 140.887 15.8C140.727 15.8 140.571 15.8233 140.417 15.87C140.264 15.9167 140.127 15.99 140.007 16.09C139.887 16.19 139.791 16.32 139.717 16.48C139.644 16.6333 139.607 16.8233 139.607 17.05V19.06C139.607 19.2867 139.644 19.48 139.717 19.64C139.791 19.8 139.887 19.93 140.007 20.03C140.127 20.13 140.264 20.2033 140.417 20.25C140.571 20.29 140.727 20.31 140.887 20.31C141.047 20.31 141.201 20.29 141.347 20.25C141.501 20.2033 141.637 20.13 141.757 20.03C141.877 19.93 141.974 19.8 142.047 19.64C142.121 19.48 142.157 19.2867 142.157 19.06V17.05ZM146.024 17.67H147.424C147.738 17.67 147.974 17.5833 148.134 17.41C148.294 17.2367 148.374 17.02 148.374 16.76C148.374 16.4933 148.291 16.2733 148.124 16.1C147.964 15.9267 147.731 15.84 147.424 15.84H146.024V17.67ZM147.734 14.61C148.074 14.61 148.368 14.6767 148.614 14.81C148.861 14.9367 149.064 15.1033 149.224 15.31C149.391 15.5167 149.511 15.75 149.584 16.01C149.664 16.2633 149.704 16.5133 149.704 16.76C149.704 17.0133 149.658 17.2667 149.564 17.52C149.478 17.7733 149.348 18.0033 149.174 18.21C149.008 18.4167 148.798 18.5867 148.544 18.72C148.298 18.8467 148.014 18.91 147.694 18.91H146.024V21.5H144.654V14.61H147.734Z" fill="white"/>
<path d="M159 1H10C5.02944 1 1 5.02944 1 10V25C1 29.9706 5.02944 34 10 34H159C163.971 34 168 29.9706 168 25V10C168 5.02944 163.971 1 159 1Z" stroke="url(#paint2_linear_2034_2)" stroke-width="2"/>
</g>
</g>
<defs>
<linearGradient id="paint0_linear_2034_2" x1="169" y1="35" x2="1.12391e-06" y2="-5.4269e-06" gradientUnits="userSpaceOnUse">
<stop stop-color="#532424"/>
<stop offset="0.501962" stop-color="#FF0000"/>
<stop offset="1" stop-color="#532424"/>
</linearGradient>
<linearGradient id="paint1_linear_2034_2" x1="94.2335" y1="19.0034" x2="93.5358" y2="-9.08055" gradientUnits="userSpaceOnUse">
<stop stop-color="white"/>
<stop offset="1" stop-color="#999999" stop-opacity="0"/>
</linearGradient>
<linearGradient id="paint2_linear_2034_2" x1="84" y1="35" x2="84" y2="-4.23554e-06" gradientUnits="userSpaceOnUse">
<stop stop-color="#FF5E5E"/>
<stop offset="1" stop-color="#FF5353" stop-opacity="0"/>
</linearGradient>
<clipPath id="clip0_2034_2">
<rect width="169" height="35" fill="white"/>
</clipPath>
</defs>
</svg>
