<svg width="169" height="35" viewBox="0 0 169 35" fill="none" xmlns="http://www.w3.org/2000/svg">
<g clip-path="url(#clip0_2004_21)">
<mask id="mask0_2004_21" style="mask-type:luminance" maskUnits="userSpaceOnUse" x="0" y="0" width="169" height="35">
<path d="M169 0H0V35H169V0Z" fill="white"/>
</mask>
<g mask="url(#mask0_2004_21)">
<path d="M159 0H10C4.47715 0 0 4.47715 0 10V25C0 30.5228 4.47715 35 10 35H159C164.523 35 169 30.5228 169 25V10C169 4.47715 164.523 0 159 0Z" fill="url(#paint0_linear_2004_21)"/>
<mask id="mask1_2004_21" style="mask-type:alpha" maskUnits="userSpaceOnUse" x="0" y="0" width="169" height="35">
<path d="M159 0H10C4.47715 0 0 4.47715 0 10V25C0 30.5228 4.47715 35 10 35H159C164.523 35 169 30.5228 169 25V10C169 4.47715 164.523 0 159 0Z" fill="#2A2A2A"/>
</mask>
<g mask="url(#mask1_2004_21)">
<path d="M-23.421 -77.6775C80.493 -158.518 99.8186 -279.576 96.492 -330C48.4799 -180.255 -86.9995 -103.77 -148.738 -84.2459C49.6921 106.215 255.271 -10.7057 333.256 -92.9738C227.759 -104.311 143.954 -243.042 115.239 -310.991C121.754 -195.636 45.6126 -111.052 6.72766 -83.1796C74.3658 -92.7148 119.672 -141.149 133.87 -164.175C170.789 -111.737 221.531 -79.1352 242.287 -69.3891C130.82 -8.47406 18.7039 -49.5335 -23.421 -77.6775Z" fill="url(#paint1_linear_2004_21)" fill-opacity="0.3" style="mix-blend-mode:overlay"/>
</g>
<mask id="mask2_2004_21" style="mask-type:luminance" maskUnits="userSpaceOnUse" x="23" y="12" width="12" height="12">
<path d="M35 12H23V24H35V12Z" fill="white"/>
</mask>
<g mask="url(#mask2_2004_21)">
<path d="M23.8034 21C24.217 21.7178 25.1342 21.9644 25.852 21.5508L25.8534 21.55L26.0759 21.4215C26.4959 21.7808 26.9787 22.0595 27.4999 22.2435V22.5C27.4999 23.3284 28.1715 24 28.9999 24C29.8283 24 30.4999 23.3284 30.4999 22.5V22.2435C31.0212 22.0592 31.504 21.7802 31.9239 21.4205L32.1474 21.5495C32.8654 21.9637 33.7832 21.7175 34.1974 20.9995C34.6116 20.2815 34.3654 19.3637 33.6474 18.9495L33.4254 18.8215C33.5253 18.2777 33.5253 17.7203 33.4254 17.1765L33.6474 17.0485C34.3654 16.6343 34.6116 15.7165 34.1974 14.9985C33.7832 14.2805 32.8654 14.0343 32.1474 14.4485L31.9249 14.577C31.5045 14.2181 31.0214 13.9399 30.4999 13.7565V13.5C30.4999 12.6716 29.8283 12 28.9999 12C28.1715 12 27.4999 12.6716 27.4999 13.5V13.7565C26.9786 13.9408 26.4958 14.2198 26.0759 14.5795L25.8524 14.45C25.1344 14.0358 24.2166 14.282 23.8024 15C23.3882 15.718 23.6344 16.6358 24.3524 17.05L24.5744 17.178C24.4745 17.7218 24.4745 18.2792 24.5744 18.823L24.3524 18.951C23.6364 19.3663 23.391 20.2823 23.8034 21ZM28.9999 16C30.1045 16 30.9999 16.8954 30.9999 18C30.9999 19.1046 30.1045 20 28.9999 20C27.8953 20 26.9999 19.1046 26.9999 18C26.9999 16.8954 27.8953 16 28.9999 16Z" fill="white"/>
</g>
<path d="M44.32 15.85V21.5H42.95V15.85H41.12V14.61H46.14V15.85H44.32ZM46.8637 14.61H51.6137V15.84H48.2337V17.42H51.1237V18.65H48.2337V20.28H51.6137V21.5H46.8637V14.61ZM55.0152 19.12L53.6452 21.5H52.0952L54.2852 17.97L52.2252 14.61H53.7852L55.0152 16.82L56.2452 14.61H57.7852L55.7452 17.97L57.9252 21.5H56.3752L55.0152 19.12ZM59.4424 21.57C59.2158 21.57 59.0258 21.49 58.8724 21.33C58.7258 21.17 58.6524 20.9767 58.6524 20.75C58.6524 20.5367 58.7258 20.3567 58.8724 20.21C59.0258 20.0567 59.2124 19.98 59.4324 19.98C59.6591 19.98 59.8458 20.0567 59.9924 20.21C60.1458 20.3567 60.2224 20.5367 60.2224 20.75C60.2224 20.97 60.1524 21.1633 60.0124 21.33C59.8724 21.49 59.6824 21.57 59.4424 21.57ZM67.7823 20.08H65.3823L64.9323 21.5H63.4723L65.8923 14.61H67.2923L69.6923 21.5H68.2023L67.7823 20.08ZM65.7523 18.93H67.4123L67.1423 18.05L66.6023 16.23H66.5623L66.0323 18.02L65.7523 18.93ZM70.3893 20.29C70.5426 20.1767 70.6726 20.0433 70.7793 19.89C70.886 19.73 70.9726 19.5367 71.0393 19.31C71.1126 19.0833 71.1693 18.82 71.2093 18.52C71.2493 18.2133 71.2793 17.8533 71.2993 17.44L71.4293 14.61H76.0893C76.0893 15.5633 76.0893 16.5133 76.0893 17.46C76.096 18.4 76.0993 19.3467 76.0993 20.3H76.6993V23.04H75.4493V21.5H71.1293V23.04H69.8793V20.29H70.3893ZM72.6593 15.82L72.5793 17.47C72.566 17.7633 72.5493 18.0433 72.5293 18.31C72.5093 18.57 72.4793 18.82 72.4393 19.06C72.3993 19.2933 72.3426 19.5167 72.2693 19.73C72.196 19.9367 72.096 20.1267 71.9693 20.3H74.7393V15.82H72.6593ZM82.9145 17.8L82.2745 19.07L81.4945 20.55H80.5045L79.7345 19.1L79.0645 17.8H79.0245V21.5H77.6645V14.61H78.9245L80.1545 17.04L80.9845 18.74H81.0445L81.8845 17L83.0645 14.61H84.3245V21.5H82.9545V17.8H82.9145ZM89.646 17.01L88.966 18.06C88.886 18.1867 88.786 18.3433 88.666 18.53C88.5527 18.71 88.426 18.9067 88.286 19.12C88.146 19.3333 88.0027 19.5533 87.856 19.78C87.7093 20.0067 87.566 20.2267 87.426 20.44C87.2927 20.6533 87.166 20.8533 87.046 21.04C86.926 21.22 86.826 21.3733 86.746 21.5H85.506V14.61H86.866V19.14H86.906L88.346 16.89L89.816 14.61H91.066V21.5H89.696V17.01H89.646ZM96.1541 21.5V18.62H93.6141V21.5H92.2441V14.61H93.6141V17.38H96.1541V14.61H97.5441V21.5H96.1541ZM102.859 17.01L102.179 18.06C102.099 18.1867 101.999 18.3433 101.879 18.53C101.766 18.71 101.639 18.9067 101.499 19.12C101.359 19.3333 101.216 19.5533 101.069 19.78C100.922 20.0067 100.779 20.2267 100.639 20.44C100.506 20.6533 100.379 20.8533 100.259 21.04C100.139 21.22 100.039 21.3733 99.9589 21.5H98.7189V14.61H100.079V19.14H100.119L101.559 16.89L103.029 14.61H104.279V21.5H102.909V17.01H102.859ZM109.517 16.28C109.304 16.1 109.074 15.9767 108.827 15.91C108.58 15.8367 108.34 15.8 108.107 15.8C107.954 15.8 107.8 15.8233 107.647 15.87C107.494 15.91 107.357 15.98 107.237 16.08C107.117 16.18 107.017 16.31 106.937 16.47C106.864 16.63 106.827 16.8233 106.827 17.05V19.06C106.827 19.2867 106.864 19.48 106.937 19.64C107.017 19.7933 107.117 19.92 107.237 20.02C107.364 20.12 107.5 20.1933 107.647 20.24C107.8 20.2867 107.954 20.31 108.107 20.31C108.34 20.31 108.574 20.2767 108.807 20.21C109.047 20.1433 109.287 20.0167 109.527 19.83L110.177 20.89C109.924 21.1033 109.614 21.27 109.247 21.39C108.88 21.51 108.494 21.57 108.087 21.57C107.76 21.57 107.44 21.5233 107.127 21.43C106.814 21.3367 106.534 21.2 106.287 21.02C106.04 20.8333 105.84 20.6033 105.687 20.33C105.534 20.05 105.457 19.7233 105.457 19.35V16.77C105.457 16.4033 105.53 16.0833 105.677 15.81C105.83 15.53 106.027 15.2967 106.267 15.11C106.514 14.9233 106.794 14.7833 107.107 14.69C107.42 14.5967 107.74 14.55 108.067 14.55C108.467 14.55 108.85 14.6033 109.217 14.71C109.59 14.8167 109.91 14.9867 110.177 15.22L109.517 16.28ZM113.802 15.85V21.5H112.432V15.85H110.602V14.61H115.622V15.85H113.802ZM117.696 17.67H119.096C119.409 17.67 119.646 17.5833 119.806 17.41C119.966 17.2367 120.046 17.02 120.046 16.76C120.046 16.4933 119.963 16.2733 119.796 16.1C119.636 15.9267 119.403 15.84 119.096 15.84H117.696V17.67ZM119.406 14.61C119.746 14.61 120.039 14.6767 120.286 14.81C120.533 14.9367 120.736 15.1033 120.896 15.31C121.063 15.5167 121.183 15.75 121.256 16.01C121.336 16.2633 121.376 16.5133 121.376 16.76C121.376 17.0133 121.329 17.2667 121.236 17.52C121.149 17.7733 121.019 18.0033 120.846 18.21C120.679 18.4167 120.469 18.5867 120.216 18.72C119.969 18.8467 119.686 18.91 119.366 18.91H117.696V21.5H116.326V14.61H119.406ZM125.888 20.08H123.488L123.038 21.5H121.578L123.998 14.61H125.398L127.798 21.5H126.308L125.888 20.08ZM123.858 18.93H125.518L125.248 18.05L124.708 16.23H124.668L124.138 18.02L123.858 18.93ZM131.205 15.85V21.5H129.835V15.85H128.005V14.61H133.025V15.85H131.205ZM138.988 19.3C138.988 19.6733 138.918 20 138.778 20.28C138.638 20.56 138.448 20.7967 138.208 20.99C137.968 21.1833 137.685 21.33 137.358 21.43C137.038 21.5233 136.698 21.57 136.338 21.57C135.978 21.57 135.635 21.5233 135.308 21.43C134.988 21.33 134.708 21.1833 134.468 20.99C134.228 20.7967 134.038 20.56 133.898 20.28C133.758 20 133.688 19.6733 133.688 19.3V16.77C133.688 16.4033 133.762 16.08 133.908 15.8C134.055 15.52 134.252 15.2867 134.498 15.1C134.745 14.9133 135.028 14.7733 135.348 14.68C135.668 14.5867 135.998 14.54 136.338 14.54C136.678 14.54 137.008 14.59 137.328 14.69C137.648 14.79 137.932 14.9367 138.178 15.13C138.425 15.3167 138.622 15.5533 138.768 15.84C138.915 16.12 138.988 16.4433 138.988 16.81V19.3ZM137.608 17.05C137.608 16.8233 137.572 16.6333 137.498 16.48C137.425 16.32 137.328 16.19 137.208 16.09C137.088 15.99 136.952 15.9167 136.798 15.87C136.652 15.8233 136.498 15.8 136.338 15.8C136.178 15.8 136.022 15.8233 135.868 15.87C135.715 15.9167 135.578 15.99 135.458 16.09C135.338 16.19 135.242 16.32 135.168 16.48C135.095 16.6333 135.058 16.8233 135.058 17.05V19.06C135.058 19.2867 135.095 19.48 135.168 19.64C135.242 19.8 135.338 19.93 135.458 20.03C135.578 20.13 135.715 20.2033 135.868 20.25C136.022 20.29 136.178 20.31 136.338 20.31C136.498 20.31 136.652 20.29 136.798 20.25C136.952 20.2033 137.088 20.13 137.208 20.03C137.328 19.93 137.425 19.8 137.498 19.64C137.572 19.48 137.608 19.2867 137.608 19.06V17.05ZM141.475 17.67H142.875C143.189 17.67 143.425 17.5833 143.585 17.41C143.745 17.2367 143.825 17.02 143.825 16.76C143.825 16.4933 143.742 16.2733 143.575 16.1C143.415 15.9267 143.182 15.84 142.875 15.84H141.475V17.67ZM143.185 14.61C143.525 14.61 143.819 14.6767 144.065 14.81C144.312 14.9367 144.515 15.1033 144.675 15.31C144.842 15.5167 144.962 15.75 145.035 16.01C145.115 16.2633 145.155 16.5133 145.155 16.76C145.155 17.0133 145.109 17.2667 145.015 17.52C144.929 17.7733 144.799 18.0033 144.625 18.21C144.459 18.4167 144.249 18.5867 143.995 18.72C143.749 18.8467 143.465 18.91 143.145 18.91H141.475V21.5H140.105V14.61H143.185Z" fill="white"/>
<path d="M159 1H10C5.02944 1 1 5.02944 1 10V25C1 29.9706 5.02944 34 10 34H159C163.971 34 168 29.9706 168 25V10C168 5.02944 163.971 1 159 1Z" stroke="url(#paint2_linear_2004_21)" stroke-width="2"/>
</g>
</g>
<defs>
<linearGradient id="paint0_linear_2004_21" x1="169" y1="35" x2="1.12391e-06" y2="-5.4269e-06" gradientUnits="userSpaceOnUse">
<stop stop-color="#532424"/>
<stop offset="0.501962" stop-color="#D55050"/>
<stop offset="1" stop-color="#532424"/>
</linearGradient>
<linearGradient id="paint1_linear_2004_21" x1="94.2336" y1="19.0034" x2="93.536" y2="-9.08057" gradientUnits="userSpaceOnUse">
<stop stop-color="white"/>
<stop offset="1" stop-color="#999999" stop-opacity="0"/>
</linearGradient>
<linearGradient id="paint2_linear_2004_21" x1="84" y1="35" x2="84" y2="-4.23554e-06" gradientUnits="userSpaceOnUse">
<stop stop-color="#FC6666"/>
<stop offset="1" stop-color="#FF5353" stop-opacity="0"/>
</linearGradient>
<clipPath id="clip0_2004_21">
<rect width="169" height="35" fill="white"/>
</clipPath>
</defs>
</svg>
