<svg width="169" height="35" viewBox="0 0 169 35" fill="none" xmlns="http://www.w3.org/2000/svg">
<g clip-path="url(#clip0_2004_2)">
<mask id="mask0_2004_2" style="mask-type:luminance" maskUnits="userSpaceOnUse" x="0" y="0" width="169" height="35">
<path d="M169 0H0V35H169V0Z" fill="white"/>
</mask>
<g mask="url(#mask0_2004_2)">
<path d="M159 0H10C4.47715 0 0 4.47715 0 10V25C0 30.5228 4.47715 35 10 35H159C164.523 35 169 30.5228 169 25V10C169 4.47715 164.523 0 159 0Z" fill="url(#paint0_linear_2004_2)"/>
<mask id="mask1_2004_2" style="mask-type:alpha" maskUnits="userSpaceOnUse" x="0" y="0" width="169" height="35">
<path d="M159 0H10C4.47715 0 0 4.47715 0 10V25C0 30.5228 4.47715 35 10 35H159C164.523 35 169 30.5228 169 25V10C169 4.47715 164.523 0 159 0Z" fill="#2A2A2A"/>
</mask>
<g mask="url(#mask1_2004_2)">
<path d="M-23.4211 -77.6775C80.4929 -158.518 99.8185 -279.576 96.4919 -330C48.4798 -180.255 -86.9996 -103.77 -148.738 -84.2459C49.692 106.215 255.27 -10.7057 333.256 -92.9738C227.758 -104.311 143.954 -243.042 115.239 -310.991C121.754 -195.636 45.6125 -111.052 6.72754 -83.1796C74.3656 -92.7148 119.672 -141.149 133.87 -164.175C170.789 -111.737 221.531 -79.1352 242.286 -69.3891C130.82 -8.47409 18.7037 -49.5335 -23.4211 -77.6775Z" fill="url(#paint1_linear_2004_2)" fill-opacity="0.3" style="mix-blend-mode:overlay"/>
</g>
<path d="M42 17C43.6569 17 45 15.6569 45 14C45 12.3431 43.6569 11 42 11C40.3431 11 39 12.3431 39 14C39 15.6569 40.3431 17 42 17Z" fill="white"/>
<path d="M42 18C39.5159 18.0028 37.5028 20.0159 37.5 22.5C37.5 22.7761 37.7239 23 38 23H46C46.2761 23 46.5 22.7761 46.5 22.5C46.4972 20.0159 44.4841 18.0027 42 18Z" fill="white"/>
<path d="M58.49 20.5V14.84H55.95V20.5H54.58V13.61H59.88V20.5H58.49ZM66.8048 18.3C66.8048 18.6733 66.7348 19 66.5948 19.28C66.4548 19.56 66.2648 19.7967 66.0248 19.99C65.7848 20.1833 65.5015 20.33 65.1748 20.43C64.8548 20.5233 64.5148 20.57 64.1548 20.57C63.7948 20.57 63.4515 20.5233 63.1248 20.43C62.8048 20.33 62.5248 20.1833 62.2848 19.99C62.0448 19.7967 61.8548 19.56 61.7148 19.28C61.5748 19 61.5048 18.6733 61.5048 18.3V15.77C61.5048 15.4033 61.5782 15.08 61.7248 14.8C61.8715 14.52 62.0682 14.2867 62.3148 14.1C62.5615 13.9133 62.8448 13.7733 63.1648 13.68C63.4848 13.5867 63.8148 13.54 64.1548 13.54C64.4948 13.54 64.8248 13.59 65.1448 13.69C65.4648 13.79 65.7482 13.9367 65.9948 14.13C66.2415 14.3167 66.4382 14.5533 66.5848 14.84C66.7315 15.12 66.8048 15.4433 66.8048 15.81V18.3ZM65.4248 16.05C65.4248 15.8233 65.3882 15.6333 65.3148 15.48C65.2415 15.32 65.1448 15.19 65.0248 15.09C64.9048 14.99 64.7682 14.9167 64.6148 14.87C64.4682 14.8233 64.3148 14.8 64.1548 14.8C63.9948 14.8 63.8382 14.8233 63.6848 14.87C63.5315 14.9167 63.3948 14.99 63.2748 15.09C63.1548 15.19 63.0582 15.32 62.9848 15.48C62.9115 15.6333 62.8748 15.8233 62.8748 16.05V18.06C62.8748 18.2867 62.9115 18.48 62.9848 18.64C63.0582 18.8 63.1548 18.93 63.2748 19.03C63.3948 19.13 63.5315 19.2033 63.6848 19.25C63.8382 19.29 63.9948 19.31 64.1548 19.31C64.3148 19.31 64.4682 19.29 64.6148 19.25C64.7682 19.2033 64.9048 19.13 65.0248 19.03C65.1448 18.93 65.2415 18.8 65.3148 18.64C65.3882 18.48 65.4248 18.2867 65.4248 18.06V16.05ZM70.4818 14.84V16.67C70.4818 17.2433 70.4485 17.7633 70.3818 18.23C70.3151 18.6967 70.1951 19.1 70.0218 19.44C69.8485 19.78 69.6051 20.0533 69.2918 20.26C68.9851 20.4667 68.5885 20.6033 68.1018 20.67L67.8018 19.55C68.0885 19.4567 68.3185 19.3367 68.4918 19.19C68.6651 19.0433 68.7985 18.8567 68.8918 18.63C68.9918 18.4033 69.0551 18.1333 69.0818 17.82C69.1151 17.5067 69.1318 17.1367 69.1318 16.71V13.61H73.6718V20.5H72.2818V14.84H70.4818ZM76.7864 19.27H78.2064C78.5131 19.27 78.7564 19.1833 78.9364 19.01C79.1231 18.8367 79.2164 18.62 79.2164 18.36C79.2164 18.0933 79.1231 17.8767 78.9364 17.71C78.7564 17.5433 78.5097 17.46 78.1964 17.46H76.7864V19.27ZM75.4164 20.5V13.61H76.7864V16.24H78.3764C78.7164 16.24 79.0197 16.2933 79.2864 16.4C79.5531 16.5067 79.7797 16.6533 79.9664 16.84C80.1531 17.0267 80.2964 17.25 80.3964 17.51C80.4964 17.77 80.5464 18.0533 80.5464 18.36C80.5464 18.6133 80.5064 18.8667 80.4264 19.12C80.3464 19.3733 80.2197 19.6033 80.0464 19.81C79.8797 20.01 79.6631 20.1767 79.3964 20.31C79.1297 20.4367 78.8064 20.5 78.4264 20.5H75.4164ZM83.8934 13.55C84.2068 13.55 84.5068 13.5833 84.7934 13.65C85.0801 13.7167 85.3334 13.8267 85.5534 13.98C85.7734 14.1267 85.9468 14.32 86.0734 14.56C86.2068 14.8 86.2734 15.0933 86.2734 15.44C86.2734 15.7733 86.1868 16.07 86.0134 16.33C85.8468 16.59 85.6201 16.7867 85.3334 16.92C85.6668 17.0467 85.9168 17.2467 86.0834 17.52C86.2568 17.7933 86.3434 18.0933 86.3434 18.42C86.3434 18.8 86.2701 19.1267 86.1234 19.4C85.9834 19.6667 85.7934 19.89 85.5534 20.07C85.3201 20.2433 85.0468 20.37 84.7334 20.45C84.4268 20.53 84.1034 20.57 83.7634 20.57C83.5301 20.57 83.3001 20.5533 83.0734 20.52C82.8468 20.4933 82.6268 20.45 82.4134 20.39C82.2068 20.33 82.0134 20.2567 81.8334 20.17C81.6534 20.0833 81.4968 19.9833 81.3634 19.87L82.0734 18.86C82.1734 18.94 82.2901 19.0133 82.4234 19.08C82.5568 19.14 82.6968 19.19 82.8434 19.23C82.9901 19.27 83.1334 19.3033 83.2734 19.33C83.4201 19.35 83.5501 19.36 83.6634 19.36C84.0901 19.36 84.4134 19.2733 84.6334 19.1C84.8601 18.92 84.9734 18.6833 84.9734 18.39C84.9734 18.09 84.8701 17.8667 84.6634 17.72C84.4568 17.5667 84.1834 17.49 83.8434 17.49H82.9234V16.41H83.8034C83.9501 16.41 84.0868 16.39 84.2134 16.35C84.3468 16.31 84.4634 16.2533 84.5634 16.18C84.6634 16.1067 84.7434 16.0133 84.8034 15.9C84.8634 15.7867 84.8934 15.66 84.8934 15.52C84.8934 15.3733 84.8601 15.25 84.7934 15.15C84.7268 15.05 84.6401 14.97 84.5334 14.91C84.4268 14.8433 84.3034 14.7967 84.1634 14.77C84.0301 14.7433 83.8901 14.73 83.7434 14.73C83.5168 14.73 83.2668 14.7733 82.9934 14.86C82.7201 14.94 82.4868 15.0633 82.2934 15.23L81.6234 14.25C81.9101 14.0233 82.2468 13.85 82.6334 13.73C83.0201 13.61 83.4401 13.55 83.8934 13.55ZM93.1115 18.3C93.1115 18.6733 93.0415 19 92.9015 19.28C92.7615 19.56 92.5715 19.7967 92.3315 19.99C92.0915 20.1833 91.8082 20.33 91.4815 20.43C91.1615 20.5233 90.8215 20.57 90.4615 20.57C90.1015 20.57 89.7582 20.5233 89.4315 20.43C89.1115 20.33 88.8315 20.1833 88.5915 19.99C88.3515 19.7967 88.1615 19.56 88.0215 19.28C87.8815 19 87.8115 18.6733 87.8115 18.3V15.77C87.8115 15.4033 87.8848 15.08 88.0315 14.8C88.1782 14.52 88.3748 14.2867 88.6215 14.1C88.8682 13.9133 89.1515 13.7733 89.4715 13.68C89.7915 13.5867 90.1215 13.54 90.4615 13.54C90.8015 13.54 91.1315 13.59 91.4515 13.69C91.7715 13.79 92.0548 13.9367 92.3015 14.13C92.5482 14.3167 92.7448 14.5533 92.8915 14.84C93.0382 15.12 93.1115 15.4433 93.1115 15.81V18.3ZM91.7315 16.05C91.7315 15.8233 91.6948 15.6333 91.6215 15.48C91.5482 15.32 91.4515 15.19 91.3315 15.09C91.2115 14.99 91.0748 14.9167 90.9215 14.87C90.7748 14.8233 90.6215 14.8 90.4615 14.8C90.3015 14.8 90.1448 14.8233 89.9915 14.87C89.8382 14.9167 89.7015 14.99 89.5815 15.09C89.4615 15.19 89.3648 15.32 89.2915 15.48C89.2182 15.6333 89.1815 15.8233 89.1815 16.05V18.06C89.1815 18.2867 89.2182 18.48 89.2915 18.64C89.3648 18.8 89.4615 18.93 89.5815 19.03C89.7015 19.13 89.8382 19.2033 89.9915 19.25C90.1448 19.29 90.3015 19.31 90.4615 19.31C90.6215 19.31 90.7748 19.29 90.9215 19.25C91.0748 19.2033 91.2115 19.13 91.3315 19.03C91.4515 18.93 91.5482 18.8 91.6215 18.64C91.6948 18.48 91.7315 18.2867 91.7315 18.06V16.05ZM99.9584 18.45C99.9584 18.73 99.9151 18.9933 99.8284 19.24C99.7418 19.4867 99.6151 19.7033 99.4484 19.89C99.2818 20.0767 99.0751 20.2267 98.8284 20.34C98.5818 20.4467 98.2951 20.5 97.9684 20.5H94.7384V13.61H97.8384C98.1851 13.61 98.4818 13.66 98.7284 13.76C98.9818 13.86 99.1884 13.9967 99.3484 14.17C99.5151 14.3433 99.6384 14.5433 99.7184 14.77C99.7984 14.9967 99.8384 15.2333 99.8384 15.48C99.8384 15.7333 99.7684 15.9933 99.6284 16.26C99.4951 16.5267 99.2818 16.7333 98.9884 16.88C99.1551 16.96 99.2984 17.0633 99.4184 17.19C99.5384 17.31 99.6384 17.4433 99.7184 17.59C99.7984 17.73 99.8584 17.8767 99.8984 18.03C99.9384 18.1767 99.9584 18.3167 99.9584 18.45ZM98.4284 15.61C98.4284 15.3567 98.3518 15.1633 98.1984 15.03C98.0518 14.8967 97.8184 14.83 97.4984 14.83H96.1084V16.34H97.5184C97.8051 16.34 98.0284 16.2733 98.1884 16.14C98.3484 16.0067 98.4284 15.83 98.4284 15.61ZM98.5084 18.41C98.5084 18.1433 98.4251 17.93 98.2584 17.77C98.0918 17.6033 97.8618 17.52 97.5684 17.52H96.1084V19.28H97.5784C97.8851 19.28 98.1151 19.2033 98.2684 19.05C98.4284 18.89 98.5084 18.6767 98.5084 18.41ZM105.269 19.08H102.869L102.419 20.5H100.959L103.379 13.61H104.779L107.179 20.5H105.689L105.269 19.08ZM103.239 17.93H104.899L104.629 17.05L104.089 15.23H104.049L103.519 17.02L103.239 17.93ZM111.086 14.85V20.5H109.716V14.85H107.886V13.61H112.906V14.85H111.086ZM114.129 13.61H118.879V14.84H115.499V16.42H118.389V17.65H115.499V19.28H118.879V20.5H114.129V13.61ZM122.441 14.84V16.67C122.441 17.2433 122.407 17.7633 122.341 18.23C122.274 18.6967 122.154 19.1 121.981 19.44C121.807 19.78 121.564 20.0533 121.251 20.26C120.944 20.4667 120.547 20.6033 120.061 20.67L119.761 19.55C120.047 19.4567 120.277 19.3367 120.451 19.19C120.624 19.0433 120.757 18.8567 120.851 18.63C120.951 18.4033 121.014 18.1333 121.041 17.82C121.074 17.5067 121.091 17.1367 121.091 16.71V13.61H125.631V20.5H124.241V14.84H122.441ZM128.745 19.27H130.165C130.472 19.27 130.715 19.1833 130.895 19.01C131.082 18.8367 131.175 18.62 131.175 18.36C131.175 18.0933 131.082 17.8767 130.895 17.71C130.715 17.5433 130.469 17.46 130.155 17.46H128.745V19.27ZM127.375 20.5V13.61H128.745V16.24H130.335C130.675 16.24 130.979 16.2933 131.245 16.4C131.512 16.5067 131.739 16.6533 131.925 16.84C132.112 17.0267 132.255 17.25 132.355 17.51C132.455 17.77 132.505 18.0533 132.505 18.36C132.505 18.6133 132.465 18.8667 132.385 19.12C132.305 19.3733 132.179 19.6033 132.005 19.81C131.839 20.01 131.622 20.1767 131.355 20.31C131.089 20.4367 130.765 20.5 130.385 20.5H127.375Z" fill="white"/>
<path d="M159 1H10C5.02944 1 1 5.02944 1 10V25C1 29.9706 5.02944 34 10 34H159C163.971 34 168 29.9706 168 25V10C168 5.02944 163.971 1 159 1Z" stroke="url(#paint2_linear_2004_2)" stroke-width="2"/>
</g>
</g>
<defs>
<linearGradient id="paint0_linear_2004_2" x1="169" y1="35" x2="1.12391e-06" y2="-5.4269e-06" gradientUnits="userSpaceOnUse">
<stop stop-color="#272727"/>
<stop offset="0.501962" stop-color="#474747"/>
<stop offset="1" stop-color="#272727"/>
</linearGradient>
<linearGradient id="paint1_linear_2004_2" x1="94.2335" y1="19.0034" x2="93.5358" y2="-9.08058" gradientUnits="userSpaceOnUse">
<stop stop-color="white"/>
<stop offset="1" stop-color="#999999" stop-opacity="0"/>
</linearGradient>
<linearGradient id="paint2_linear_2004_2" x1="84" y1="35" x2="84" y2="-4.23554e-06" gradientUnits="userSpaceOnUse">
<stop stop-color="#B1B1B1"/>
<stop offset="1" stop-color="#B1B1B1" stop-opacity="0"/>
</linearGradient>
<clipPath id="clip0_2004_2">
<rect width="169" height="35" fill="white"/>
</clipPath>
</defs>
</svg>
